G04 #@! TF.FileFunction,Soldermask,Top*
%FSLAX46Y46*%
G04 Gerber Fmt 4.6, Leading zero omitted, Abs format (unit mm)*
G04 Created by KiCad (PCBNEW 4.0.7) date 05/20/20 11:55:21*
%MOMM*%
%LPD*%
G01*
G04 APERTURE LIST*
%ADD10C,0.100000*%
%ADD11R,1.650000X1.900000*%
%ADD12R,1.150000X1.200000*%
%ADD13R,1.300000X1.200000*%
%ADD14R,1.600000X1.600000*%
%ADD15R,1.400000X1.400000*%
%ADD16R,1.000000X0.800000*%
%ADD17R,2.100000X2.100000*%
%ADD18O,2.100000X2.100000*%
%ADD19C,2.400000*%
%ADD20R,1.900000X1.650000*%
%ADD21R,1.700000X1.900000*%
%ADD22R,2.400000X4.200000*%
%ADD23R,2.400000X1.900000*%
%ADD24R,1.900000X1.700000*%
%ADD25R,2.800000X3.900000*%
%ADD26R,1.400000X2.200000*%
%ADD27R,1.000000X0.900000*%
%ADD28R,0.900000X1.000000*%
%ADD29R,0.800000X1.000000*%
%ADD30R,1.800000X1.600000*%
%ADD31R,1.130000X0.700000*%
%ADD32R,0.700000X1.130000*%
%ADD33R,1.150000X1.150000*%
%ADD34R,0.680000X1.900000*%
%ADD35R,1.900000X0.680000*%
%ADD36R,2.100000X1.700000*%
%ADD37R,2.200000X2.900000*%
%ADD38R,6.400000X6.400000*%
%ADD39R,1.950000X1.000000*%
%ADD40R,1.200000X1.300000*%
%ADD41R,1.650000X1.400000*%
%ADD42C,4.150000*%
%ADD43R,11.400000X6.400000*%
%ADD44O,4.400000X1.400000*%
%ADD45R,2.900000X4.400000*%
G04 APERTURE END LIST*
D10*
D11*
X119300000Y-143150000D03*
X119300000Y-140650000D03*
D12*
X124245800Y-143829400D03*
X124245800Y-142329400D03*
X57800000Y-122850000D03*
X57800000Y-124350000D03*
D13*
X111190000Y-108940000D03*
X111190000Y-110840000D03*
X113190000Y-109890000D03*
D14*
X128016000Y-91397000D03*
X128016000Y-89197000D03*
X82296000Y-59393000D03*
X82296000Y-57193000D03*
X120396000Y-59393000D03*
X120396000Y-57193000D03*
D15*
X123650000Y-135750000D03*
X121150000Y-135750000D03*
D16*
X134970000Y-134430000D03*
X134970000Y-133530000D03*
D11*
X111150000Y-141100000D03*
X111150000Y-138600000D03*
X119300000Y-135850000D03*
X119300000Y-138350000D03*
D17*
X54100000Y-132100000D03*
D18*
X56640000Y-132100000D03*
X59180000Y-132100000D03*
X61720000Y-132100000D03*
D19*
X53200000Y-134900000D03*
X57700000Y-134900000D03*
X53200000Y-141400000D03*
X57700000Y-141400000D03*
D11*
X85618000Y-138116000D03*
X85618000Y-140616000D03*
D20*
X89928000Y-137996000D03*
X87428000Y-137996000D03*
D21*
X82575000Y-140800000D03*
X82575000Y-138100000D03*
D22*
X75550000Y-138800000D03*
D23*
X69250000Y-138800000D03*
X69250000Y-141100000D03*
X69250000Y-136500000D03*
D11*
X63100000Y-135050000D03*
X63100000Y-137550000D03*
X63200000Y-139750000D03*
X63200000Y-142250000D03*
D24*
X82750000Y-135725000D03*
X85450000Y-135725000D03*
D21*
X60200000Y-135250000D03*
X60200000Y-137950000D03*
D20*
X87350000Y-134800000D03*
X89850000Y-134800000D03*
D11*
X77800000Y-138750000D03*
X77800000Y-141250000D03*
D25*
X116300000Y-142000000D03*
X116300000Y-136800000D03*
D26*
X89768000Y-139936000D03*
X87268000Y-139936000D03*
D27*
X132758000Y-129816000D03*
X131658000Y-129816000D03*
X132718000Y-130696000D03*
X131618000Y-130696000D03*
X129498000Y-130676000D03*
X130598000Y-130676000D03*
D28*
X129928000Y-139356000D03*
X129928000Y-138256000D03*
X134952000Y-139464000D03*
X134952000Y-138364000D03*
D27*
X137980000Y-136080000D03*
X136880000Y-136080000D03*
X137910000Y-135260000D03*
X136810000Y-135260000D03*
X137620000Y-133610000D03*
X138720000Y-133610000D03*
D28*
X138710000Y-131670000D03*
X138710000Y-132770000D03*
D29*
X136690000Y-133570000D03*
X135790000Y-133570000D03*
D16*
X135890000Y-135340000D03*
X135890000Y-134440000D03*
D29*
X132943000Y-136851000D03*
X132043000Y-136851000D03*
D16*
X133608000Y-129826000D03*
X133608000Y-130726000D03*
D30*
X131443000Y-139701000D03*
X133643000Y-139701000D03*
X133643000Y-138001000D03*
X131443000Y-138001000D03*
D17*
X54100000Y-127600000D03*
D18*
X56640000Y-127600000D03*
X59180000Y-127600000D03*
X61720000Y-127600000D03*
D31*
X129700000Y-132743000D03*
X129700000Y-133243000D03*
X129700000Y-133743000D03*
X129700000Y-134243000D03*
X129700000Y-134743000D03*
D32*
X130665000Y-135708000D03*
X131165000Y-135708000D03*
X131665000Y-135708000D03*
X132165000Y-135708000D03*
X132665000Y-135708000D03*
D31*
X133630000Y-134743000D03*
X133630000Y-134243000D03*
X133630000Y-133743000D03*
X133630000Y-133243000D03*
X133630000Y-132743000D03*
D32*
X132665000Y-131778000D03*
X132165000Y-131778000D03*
X131665000Y-131778000D03*
X131165000Y-131778000D03*
X130665000Y-131778000D03*
D33*
X132040000Y-134118000D03*
X132040000Y-133368000D03*
X131290000Y-134118000D03*
X131290000Y-133368000D03*
D34*
X95098000Y-140726000D03*
X95598000Y-140726000D03*
X96098000Y-140726000D03*
X96598000Y-140726000D03*
X97098000Y-140726000D03*
X97598000Y-140726000D03*
X98098000Y-140726000D03*
X98598000Y-140726000D03*
X99098000Y-140726000D03*
X99598000Y-140726000D03*
X100098000Y-140726000D03*
X100598000Y-140726000D03*
X101098000Y-140726000D03*
X101598000Y-140726000D03*
X102098000Y-140726000D03*
X102598000Y-140726000D03*
X103098000Y-140726000D03*
X103598000Y-140726000D03*
X104098000Y-140726000D03*
X104598000Y-140726000D03*
X105098000Y-140726000D03*
X105598000Y-140726000D03*
X106098000Y-140726000D03*
X106598000Y-140726000D03*
X107098000Y-140726000D03*
D35*
X108998000Y-138826000D03*
X108998000Y-138326000D03*
X108998000Y-137826000D03*
X108998000Y-137326000D03*
X108998000Y-136826000D03*
X108998000Y-136326000D03*
X108998000Y-135826000D03*
X108998000Y-135326000D03*
X108998000Y-134826000D03*
X108998000Y-134326000D03*
X108998000Y-133826000D03*
X108998000Y-133326000D03*
X108998000Y-132826000D03*
X108998000Y-132326000D03*
X108998000Y-131826000D03*
X108998000Y-131326000D03*
X108998000Y-130826000D03*
X108998000Y-130326000D03*
X108998000Y-129826000D03*
X108998000Y-129326000D03*
X108998000Y-128826000D03*
X108998000Y-128326000D03*
X108998000Y-127826000D03*
X108998000Y-127326000D03*
X108998000Y-126826000D03*
D34*
X107098000Y-124926000D03*
X106598000Y-124926000D03*
X106098000Y-124926000D03*
X105598000Y-124926000D03*
X105098000Y-124926000D03*
X104598000Y-124926000D03*
X104098000Y-124926000D03*
X103598000Y-124926000D03*
X103098000Y-124926000D03*
X102598000Y-124926000D03*
X102098000Y-124926000D03*
X101598000Y-124926000D03*
X101098000Y-124926000D03*
X100598000Y-124926000D03*
X100098000Y-124926000D03*
X99598000Y-124926000D03*
X99098000Y-124926000D03*
X98598000Y-124926000D03*
X98098000Y-124926000D03*
X97598000Y-124926000D03*
X97098000Y-124926000D03*
X96598000Y-124926000D03*
X96098000Y-124926000D03*
X95598000Y-124926000D03*
X95098000Y-124926000D03*
D35*
X93198000Y-126826000D03*
X93198000Y-127326000D03*
X93198000Y-127826000D03*
X93198000Y-128326000D03*
X93198000Y-128826000D03*
X93198000Y-129326000D03*
X93198000Y-129826000D03*
X93198000Y-130326000D03*
X93198000Y-130826000D03*
X93198000Y-131326000D03*
X93198000Y-131826000D03*
X93198000Y-132326000D03*
X93198000Y-132826000D03*
X93198000Y-133326000D03*
X93198000Y-133826000D03*
X93198000Y-134326000D03*
X93198000Y-134826000D03*
X93198000Y-135326000D03*
X93198000Y-135826000D03*
X93198000Y-136326000D03*
X93198000Y-136826000D03*
X93198000Y-137326000D03*
X93198000Y-137826000D03*
X93198000Y-138326000D03*
X93198000Y-138826000D03*
D20*
X118150000Y-129300000D03*
X120650000Y-129300000D03*
D36*
X80000000Y-141250000D03*
X80000000Y-137750000D03*
D24*
X121300000Y-137400000D03*
X124000000Y-137400000D03*
X124200000Y-121300000D03*
X121500000Y-121300000D03*
X130000000Y-122550000D03*
X127300000Y-122550000D03*
D21*
X125650000Y-124450000D03*
X125650000Y-127150000D03*
X127550000Y-127200000D03*
X127550000Y-124500000D03*
D24*
X144750000Y-121100000D03*
X142050000Y-121100000D03*
X116700000Y-121300000D03*
X119400000Y-121300000D03*
D21*
X111650000Y-123350000D03*
X111650000Y-126050000D03*
X115950000Y-123400000D03*
X115950000Y-126100000D03*
X113850000Y-126000000D03*
X113850000Y-123300000D03*
D37*
X52775000Y-69675000D03*
X52775000Y-65675000D03*
X52750000Y-62450000D03*
X52750000Y-58450000D03*
X147125000Y-69425000D03*
X147125000Y-65425000D03*
X147100000Y-62325000D03*
X147100000Y-58325000D03*
D38*
X65000000Y-48375000D03*
X135000000Y-48125000D03*
D39*
X123450000Y-127555000D03*
X123450000Y-126285000D03*
X123450000Y-125015000D03*
X123450000Y-123745000D03*
X118050000Y-123745000D03*
X118050000Y-125015000D03*
X118050000Y-126285000D03*
X118050000Y-127555000D03*
D11*
X108800000Y-121500000D03*
X108800000Y-124000000D03*
D20*
X89550000Y-125300000D03*
X92050000Y-125300000D03*
D11*
X60200000Y-140050000D03*
X60200000Y-142550000D03*
X148550000Y-123700000D03*
X148550000Y-121200000D03*
D15*
X141950000Y-123250000D03*
X144450000Y-123250000D03*
D40*
X141270000Y-114310000D03*
X143170000Y-114310000D03*
X142220000Y-112310000D03*
X105948000Y-114276000D03*
X107848000Y-114276000D03*
X106898000Y-112276000D03*
X70248000Y-114176000D03*
X72148000Y-114176000D03*
X71198000Y-112176000D03*
X137448000Y-114376000D03*
X139348000Y-114376000D03*
X138398000Y-112376000D03*
X101548000Y-114276000D03*
X103448000Y-114276000D03*
X102498000Y-112276000D03*
X65748000Y-114276000D03*
X67648000Y-114276000D03*
X66698000Y-112276000D03*
X132848000Y-114376000D03*
X134748000Y-114376000D03*
X133798000Y-112376000D03*
X97148000Y-114176000D03*
X99048000Y-114176000D03*
X98098000Y-112176000D03*
X61148000Y-114276000D03*
X63048000Y-114276000D03*
X62098000Y-112276000D03*
X128348000Y-114376000D03*
X130248000Y-114376000D03*
X129298000Y-112376000D03*
X92698000Y-114276000D03*
X94598000Y-114276000D03*
X93648000Y-112276000D03*
X56698000Y-114296000D03*
X58598000Y-114296000D03*
X57648000Y-112296000D03*
X88198000Y-114276000D03*
X90098000Y-114276000D03*
X89148000Y-112276000D03*
X119348000Y-114376000D03*
X121248000Y-114376000D03*
X120298000Y-112376000D03*
X83548000Y-114276000D03*
X85448000Y-114276000D03*
X84498000Y-112276000D03*
X114948000Y-114276000D03*
X116848000Y-114276000D03*
X115898000Y-112276000D03*
X79148000Y-114376000D03*
X81048000Y-114376000D03*
X80098000Y-112376000D03*
X110448000Y-114276000D03*
X112348000Y-114276000D03*
X111398000Y-112276000D03*
X74742000Y-114284000D03*
X76642000Y-114284000D03*
X75692000Y-112284000D03*
D13*
X59098000Y-66326000D03*
X59098000Y-68226000D03*
X61098000Y-67276000D03*
D21*
X141150000Y-104050000D03*
X141150000Y-106750000D03*
X105664000Y-104314000D03*
X105664000Y-107014000D03*
X72136000Y-104314000D03*
X72136000Y-107014000D03*
X137125000Y-104225000D03*
X137125000Y-106925000D03*
X101346000Y-104314000D03*
X101346000Y-107014000D03*
X67818000Y-104314000D03*
X67818000Y-107014000D03*
X132588000Y-104314000D03*
X132588000Y-107014000D03*
X97282000Y-104314000D03*
X97282000Y-107014000D03*
X63500000Y-104314000D03*
X63500000Y-107014000D03*
X128270000Y-104314000D03*
X128270000Y-107014000D03*
X93218000Y-104314000D03*
X93218000Y-107014000D03*
X58928000Y-104314000D03*
X58928000Y-107014000D03*
X123952000Y-104314000D03*
X123952000Y-107014000D03*
X89154000Y-104314000D03*
X89154000Y-107014000D03*
X119634000Y-104314000D03*
X119634000Y-107014000D03*
X84836000Y-104314000D03*
X84836000Y-107014000D03*
X114808000Y-104314000D03*
X114808000Y-107014000D03*
X80772000Y-104314000D03*
X80772000Y-107014000D03*
X110236000Y-104314000D03*
X110236000Y-107014000D03*
X76454000Y-104314000D03*
X76454000Y-107014000D03*
D40*
X123748000Y-114376000D03*
X125648000Y-114376000D03*
X124698000Y-112376000D03*
D13*
X59000000Y-57250000D03*
X59000000Y-59150000D03*
X61000000Y-58200000D03*
X58898000Y-80416000D03*
X58898000Y-82316000D03*
X60898000Y-81366000D03*
X58998000Y-61626000D03*
X58998000Y-63526000D03*
X60998000Y-62576000D03*
X58908000Y-85136000D03*
X58908000Y-87036000D03*
X60908000Y-86086000D03*
X58908000Y-89606000D03*
X58908000Y-91506000D03*
X60908000Y-90556000D03*
X59048000Y-70976000D03*
X59048000Y-72876000D03*
X61048000Y-71926000D03*
X58928000Y-94456000D03*
X58928000Y-96356000D03*
X60928000Y-95406000D03*
X58898000Y-75626000D03*
X58898000Y-77526000D03*
X60898000Y-76576000D03*
X58898000Y-99326000D03*
X58898000Y-101226000D03*
X60898000Y-100276000D03*
X141898000Y-101126000D03*
X141898000Y-99226000D03*
X139898000Y-100176000D03*
X141898000Y-77626000D03*
X141898000Y-75726000D03*
X139898000Y-76676000D03*
X141898000Y-96426000D03*
X141898000Y-94526000D03*
X139898000Y-95476000D03*
X141898000Y-73026000D03*
X141898000Y-71126000D03*
X139898000Y-72076000D03*
X141898000Y-91726000D03*
X141898000Y-89826000D03*
X139898000Y-90776000D03*
X141898000Y-68226000D03*
X141898000Y-66326000D03*
X139898000Y-67276000D03*
X141898000Y-87026000D03*
X141898000Y-85126000D03*
X139898000Y-86076000D03*
X141898000Y-63626000D03*
X141898000Y-61726000D03*
X139898000Y-62676000D03*
X141898000Y-82326000D03*
X141898000Y-80426000D03*
X139898000Y-81376000D03*
X141798000Y-59026000D03*
X141798000Y-57126000D03*
X139798000Y-58076000D03*
D14*
X135636000Y-59393000D03*
X135636000Y-57193000D03*
X131826000Y-59393000D03*
X131826000Y-57193000D03*
X128016000Y-59393000D03*
X128016000Y-57193000D03*
X124206000Y-59393000D03*
X124206000Y-57193000D03*
X116586000Y-59393000D03*
X116586000Y-57193000D03*
X112776000Y-59393000D03*
X112776000Y-57193000D03*
X108966000Y-59393000D03*
X108966000Y-57193000D03*
X105156000Y-59393000D03*
X105156000Y-57193000D03*
X101346000Y-59393000D03*
X101346000Y-57193000D03*
X97536000Y-59393000D03*
X97536000Y-57193000D03*
X93726000Y-59393000D03*
X93726000Y-57193000D03*
X89916000Y-59393000D03*
X89916000Y-57193000D03*
X86106000Y-59393000D03*
X86106000Y-57193000D03*
X78486000Y-59393000D03*
X78486000Y-57193000D03*
X74676000Y-59393000D03*
X74676000Y-57193000D03*
X70866000Y-59393000D03*
X70866000Y-57193000D03*
X67056000Y-59393000D03*
X67056000Y-57193000D03*
X63246000Y-59393000D03*
X63246000Y-57193000D03*
X137541000Y-60536000D03*
X137541000Y-58336000D03*
X133731000Y-60536000D03*
X133731000Y-58336000D03*
X129921000Y-60536000D03*
X129921000Y-58336000D03*
X126111000Y-60536000D03*
X126111000Y-58336000D03*
X122301000Y-60536000D03*
X122301000Y-58336000D03*
X118491000Y-60536000D03*
X118491000Y-58336000D03*
X114681000Y-60536000D03*
X114681000Y-58336000D03*
X110871000Y-60536000D03*
X110871000Y-58336000D03*
X107061000Y-60536000D03*
X107061000Y-58336000D03*
X103251000Y-60536000D03*
X103251000Y-58336000D03*
X99441000Y-60536000D03*
X99441000Y-58336000D03*
X95631000Y-60536000D03*
X95631000Y-58336000D03*
X91821000Y-60536000D03*
X91821000Y-58336000D03*
X88011000Y-60536000D03*
X88011000Y-58336000D03*
X84201000Y-60536000D03*
X84201000Y-58336000D03*
X80391000Y-60536000D03*
X80391000Y-58336000D03*
X76581000Y-60536000D03*
X76581000Y-58336000D03*
X72771000Y-60536000D03*
X72771000Y-58336000D03*
X68961000Y-60536000D03*
X68961000Y-58336000D03*
X65151000Y-60536000D03*
X65151000Y-58336000D03*
X135636000Y-63965000D03*
X135636000Y-61765000D03*
X131826000Y-63965000D03*
X131826000Y-61765000D03*
X128016000Y-63965000D03*
X128016000Y-61765000D03*
X124206000Y-63965000D03*
X124206000Y-61765000D03*
X120396000Y-63965000D03*
X120396000Y-61765000D03*
X116586000Y-63965000D03*
X116586000Y-61765000D03*
X112776000Y-63965000D03*
X112776000Y-61765000D03*
X108966000Y-63965000D03*
X108966000Y-61765000D03*
X105156000Y-63965000D03*
X105156000Y-61765000D03*
X101346000Y-63965000D03*
X101346000Y-61765000D03*
X97536000Y-63965000D03*
X97536000Y-61765000D03*
X93726000Y-63965000D03*
X93726000Y-61765000D03*
X89916000Y-63965000D03*
X89916000Y-61765000D03*
X86106000Y-63965000D03*
X86106000Y-61765000D03*
X82296000Y-63965000D03*
X82296000Y-61765000D03*
X78486000Y-63965000D03*
X78486000Y-61765000D03*
X74676000Y-63965000D03*
X74676000Y-61765000D03*
X70866000Y-63965000D03*
X70866000Y-61765000D03*
X67056000Y-63965000D03*
X67056000Y-61765000D03*
X63246000Y-63965000D03*
X63246000Y-61765000D03*
X137541000Y-65108000D03*
X137541000Y-62908000D03*
X133731000Y-65108000D03*
X133731000Y-62908000D03*
X129921000Y-65108000D03*
X129921000Y-62908000D03*
X126111000Y-65108000D03*
X126111000Y-62908000D03*
X122301000Y-65108000D03*
X122301000Y-62908000D03*
X118491000Y-65108000D03*
X118491000Y-62908000D03*
X114681000Y-65108000D03*
X114681000Y-62908000D03*
X110871000Y-65108000D03*
X110871000Y-62908000D03*
X107061000Y-65108000D03*
X107061000Y-62908000D03*
X103251000Y-65108000D03*
X103251000Y-62908000D03*
X99441000Y-65108000D03*
X99441000Y-62908000D03*
X95631000Y-65108000D03*
X95631000Y-62908000D03*
X91821000Y-65108000D03*
X91821000Y-62908000D03*
X88011000Y-65108000D03*
X88011000Y-62908000D03*
X84201000Y-65108000D03*
X84201000Y-62908000D03*
X80391000Y-65108000D03*
X80391000Y-62908000D03*
X76581000Y-65108000D03*
X76581000Y-62908000D03*
X72771000Y-65108000D03*
X72771000Y-62908000D03*
X68961000Y-65108000D03*
X68961000Y-62908000D03*
X65151000Y-65108000D03*
X65151000Y-62908000D03*
X135636000Y-68537000D03*
X135636000Y-66337000D03*
X131826000Y-68537000D03*
X131826000Y-66337000D03*
X128016000Y-68537000D03*
X128016000Y-66337000D03*
X124206000Y-68537000D03*
X124206000Y-66337000D03*
X120396000Y-68537000D03*
X120396000Y-66337000D03*
X116586000Y-68537000D03*
X116586000Y-66337000D03*
X112776000Y-68537000D03*
X112776000Y-66337000D03*
X108966000Y-68537000D03*
X108966000Y-66337000D03*
X105156000Y-68537000D03*
X105156000Y-66337000D03*
X101346000Y-68537000D03*
X101346000Y-66337000D03*
X97536000Y-68537000D03*
X97536000Y-66337000D03*
X93726000Y-68537000D03*
X93726000Y-66337000D03*
X89916000Y-68537000D03*
X89916000Y-66337000D03*
X86106000Y-68537000D03*
X86106000Y-66337000D03*
X82296000Y-68537000D03*
X82296000Y-66337000D03*
X78486000Y-68537000D03*
X78486000Y-66337000D03*
X74676000Y-68537000D03*
X74676000Y-66337000D03*
X70866000Y-68537000D03*
X70866000Y-66337000D03*
X67056000Y-68537000D03*
X67056000Y-66337000D03*
X63246000Y-68537000D03*
X63246000Y-66337000D03*
X137541000Y-69680000D03*
X137541000Y-67480000D03*
X133731000Y-69680000D03*
X133731000Y-67480000D03*
X129921000Y-69680000D03*
X129921000Y-67480000D03*
X126111000Y-69680000D03*
X126111000Y-67480000D03*
X122301000Y-69680000D03*
X122301000Y-67480000D03*
X118491000Y-69680000D03*
X118491000Y-67480000D03*
X114681000Y-69680000D03*
X114681000Y-67480000D03*
X110871000Y-69680000D03*
X110871000Y-67480000D03*
X107061000Y-69680000D03*
X107061000Y-67480000D03*
X103251000Y-69680000D03*
X103251000Y-67480000D03*
X99441000Y-69680000D03*
X99441000Y-67480000D03*
X95631000Y-69680000D03*
X95631000Y-67480000D03*
X91821000Y-69680000D03*
X91821000Y-67480000D03*
X88011000Y-69680000D03*
X88011000Y-67480000D03*
X84201000Y-69680000D03*
X84201000Y-67480000D03*
X80391000Y-69680000D03*
X80391000Y-67480000D03*
X76581000Y-69680000D03*
X76581000Y-67480000D03*
X72771000Y-69680000D03*
X72771000Y-67480000D03*
X68961000Y-69680000D03*
X68961000Y-67480000D03*
X65151000Y-69680000D03*
X65151000Y-67480000D03*
X135636000Y-73109000D03*
X135636000Y-70909000D03*
X131826000Y-73109000D03*
X131826000Y-70909000D03*
X128016000Y-73109000D03*
X128016000Y-70909000D03*
X124206000Y-73109000D03*
X124206000Y-70909000D03*
X120396000Y-73109000D03*
X120396000Y-70909000D03*
X116586000Y-73109000D03*
X116586000Y-70909000D03*
X112776000Y-73109000D03*
X112776000Y-70909000D03*
X108966000Y-73109000D03*
X108966000Y-70909000D03*
X105156000Y-73109000D03*
X105156000Y-70909000D03*
X101346000Y-73109000D03*
X101346000Y-70909000D03*
X97536000Y-73109000D03*
X97536000Y-70909000D03*
X93726000Y-73109000D03*
X93726000Y-70909000D03*
X89916000Y-73109000D03*
X89916000Y-70909000D03*
X86106000Y-73109000D03*
X86106000Y-70909000D03*
X82296000Y-73109000D03*
X82296000Y-70909000D03*
X78486000Y-73109000D03*
X78486000Y-70909000D03*
X74676000Y-73109000D03*
X74676000Y-70909000D03*
X70866000Y-73109000D03*
X70866000Y-70909000D03*
X67056000Y-73109000D03*
X67056000Y-70909000D03*
X63246000Y-73109000D03*
X63246000Y-70909000D03*
X137541000Y-74252000D03*
X137541000Y-72052000D03*
X133731000Y-74252000D03*
X133731000Y-72052000D03*
X129921000Y-74252000D03*
X129921000Y-72052000D03*
X126111000Y-74252000D03*
X126111000Y-72052000D03*
X122301000Y-74252000D03*
X122301000Y-72052000D03*
X118491000Y-74252000D03*
X118491000Y-72052000D03*
X114681000Y-74252000D03*
X114681000Y-72052000D03*
X110871000Y-74252000D03*
X110871000Y-72052000D03*
X107061000Y-74252000D03*
X107061000Y-72052000D03*
X103251000Y-74252000D03*
X103251000Y-72052000D03*
X99441000Y-74252000D03*
X99441000Y-72052000D03*
X95631000Y-74252000D03*
X95631000Y-72052000D03*
X91821000Y-74252000D03*
X91821000Y-72052000D03*
X88011000Y-74252000D03*
X88011000Y-72052000D03*
X84201000Y-74252000D03*
X84201000Y-72052000D03*
X80391000Y-74252000D03*
X80391000Y-72052000D03*
X76581000Y-74252000D03*
X76581000Y-72052000D03*
X72771000Y-74252000D03*
X72771000Y-72052000D03*
X68961000Y-74252000D03*
X68961000Y-72052000D03*
X65151000Y-74252000D03*
X65151000Y-72052000D03*
X135636000Y-77681000D03*
X135636000Y-75481000D03*
X131826000Y-77681000D03*
X131826000Y-75481000D03*
X128016000Y-77681000D03*
X128016000Y-75481000D03*
X124206000Y-77681000D03*
X124206000Y-75481000D03*
X120396000Y-77681000D03*
X120396000Y-75481000D03*
X116586000Y-77681000D03*
X116586000Y-75481000D03*
X112776000Y-77681000D03*
X112776000Y-75481000D03*
X108966000Y-77681000D03*
X108966000Y-75481000D03*
X105156000Y-77681000D03*
X105156000Y-75481000D03*
X101346000Y-77681000D03*
X101346000Y-75481000D03*
X97536000Y-77681000D03*
X97536000Y-75481000D03*
X93726000Y-77681000D03*
X93726000Y-75481000D03*
X89916000Y-77681000D03*
X89916000Y-75481000D03*
X86106000Y-77681000D03*
X86106000Y-75481000D03*
X82296000Y-77681000D03*
X82296000Y-75481000D03*
X78486000Y-77681000D03*
X78486000Y-75481000D03*
X74676000Y-77681000D03*
X74676000Y-75481000D03*
X70866000Y-77681000D03*
X70866000Y-75481000D03*
X67056000Y-77681000D03*
X67056000Y-75481000D03*
X63246000Y-77681000D03*
X63246000Y-75481000D03*
X137541000Y-78824000D03*
X137541000Y-76624000D03*
X133731000Y-78824000D03*
X133731000Y-76624000D03*
X129921000Y-78824000D03*
X129921000Y-76624000D03*
X126111000Y-78824000D03*
X126111000Y-76624000D03*
X122301000Y-78824000D03*
X122301000Y-76624000D03*
X118491000Y-78824000D03*
X118491000Y-76624000D03*
X114681000Y-78824000D03*
X114681000Y-76624000D03*
X110871000Y-78824000D03*
X110871000Y-76624000D03*
X107061000Y-78824000D03*
X107061000Y-76624000D03*
X103251000Y-78824000D03*
X103251000Y-76624000D03*
X99441000Y-78824000D03*
X99441000Y-76624000D03*
X95631000Y-78824000D03*
X95631000Y-76624000D03*
X91821000Y-78824000D03*
X91821000Y-76624000D03*
X88011000Y-78824000D03*
X88011000Y-76624000D03*
X84201000Y-78824000D03*
X84201000Y-76624000D03*
X80391000Y-78824000D03*
X80391000Y-76624000D03*
X76581000Y-78824000D03*
X76581000Y-76624000D03*
X72771000Y-78824000D03*
X72771000Y-76624000D03*
X68961000Y-78824000D03*
X68961000Y-76624000D03*
X65151000Y-78824000D03*
X65151000Y-76624000D03*
X135636000Y-82253000D03*
X135636000Y-80053000D03*
X131826000Y-82253000D03*
X131826000Y-80053000D03*
X128016000Y-82253000D03*
X128016000Y-80053000D03*
X124206000Y-82253000D03*
X124206000Y-80053000D03*
X120396000Y-82253000D03*
X120396000Y-80053000D03*
X116586000Y-82253000D03*
X116586000Y-80053000D03*
X112776000Y-82253000D03*
X112776000Y-80053000D03*
X108966000Y-82253000D03*
X108966000Y-80053000D03*
X105156000Y-82253000D03*
X105156000Y-80053000D03*
X101346000Y-82253000D03*
X101346000Y-80053000D03*
X97536000Y-82253000D03*
X97536000Y-80053000D03*
X93726000Y-82253000D03*
X93726000Y-80053000D03*
X89916000Y-82253000D03*
X89916000Y-80053000D03*
X86106000Y-82253000D03*
X86106000Y-80053000D03*
X82296000Y-82253000D03*
X82296000Y-80053000D03*
X78486000Y-82253000D03*
X78486000Y-80053000D03*
X74676000Y-82253000D03*
X74676000Y-80053000D03*
X70866000Y-82253000D03*
X70866000Y-80053000D03*
X67056000Y-82253000D03*
X67056000Y-80053000D03*
X63246000Y-82253000D03*
X63246000Y-80053000D03*
X137541000Y-83396000D03*
X137541000Y-81196000D03*
X133731000Y-83396000D03*
X133731000Y-81196000D03*
X129921000Y-83396000D03*
X129921000Y-81196000D03*
X126111000Y-83396000D03*
X126111000Y-81196000D03*
X122301000Y-83396000D03*
X122301000Y-81196000D03*
X118491000Y-83396000D03*
X118491000Y-81196000D03*
X114681000Y-83396000D03*
X114681000Y-81196000D03*
X110871000Y-83396000D03*
X110871000Y-81196000D03*
X107061000Y-83396000D03*
X107061000Y-81196000D03*
X103251000Y-83396000D03*
X103251000Y-81196000D03*
X99441000Y-83396000D03*
X99441000Y-81196000D03*
X95631000Y-83396000D03*
X95631000Y-81196000D03*
X91821000Y-83396000D03*
X91821000Y-81196000D03*
X88011000Y-83396000D03*
X88011000Y-81196000D03*
X84201000Y-83396000D03*
X84201000Y-81196000D03*
X80391000Y-83396000D03*
X80391000Y-81196000D03*
X76581000Y-83396000D03*
X76581000Y-81196000D03*
X72771000Y-83396000D03*
X72771000Y-81196000D03*
X68961000Y-83396000D03*
X68961000Y-81196000D03*
X65151000Y-83396000D03*
X65151000Y-81196000D03*
X135636000Y-86825000D03*
X135636000Y-84625000D03*
X131826000Y-86825000D03*
X131826000Y-84625000D03*
X128016000Y-86825000D03*
X128016000Y-84625000D03*
X124206000Y-86825000D03*
X124206000Y-84625000D03*
X120396000Y-86825000D03*
X120396000Y-84625000D03*
X116586000Y-86825000D03*
X116586000Y-84625000D03*
X112776000Y-86825000D03*
X112776000Y-84625000D03*
X108966000Y-86825000D03*
X108966000Y-84625000D03*
X105156000Y-86825000D03*
X105156000Y-84625000D03*
X101346000Y-86825000D03*
X101346000Y-84625000D03*
X97536000Y-86825000D03*
X97536000Y-84625000D03*
X93726000Y-86825000D03*
X93726000Y-84625000D03*
X89916000Y-86825000D03*
X89916000Y-84625000D03*
X86106000Y-86825000D03*
X86106000Y-84625000D03*
X82296000Y-86825000D03*
X82296000Y-84625000D03*
X78486000Y-86825000D03*
X78486000Y-84625000D03*
X74676000Y-86825000D03*
X74676000Y-84625000D03*
X70866000Y-86825000D03*
X70866000Y-84625000D03*
X67056000Y-86825000D03*
X67056000Y-84625000D03*
X63246000Y-86825000D03*
X63246000Y-84625000D03*
X137541000Y-87968000D03*
X137541000Y-85768000D03*
X133731000Y-87968000D03*
X133731000Y-85768000D03*
X129921000Y-87968000D03*
X129921000Y-85768000D03*
X126111000Y-87968000D03*
X126111000Y-85768000D03*
X122301000Y-87968000D03*
X122301000Y-85768000D03*
X118491000Y-87968000D03*
X118491000Y-85768000D03*
X114681000Y-87968000D03*
X114681000Y-85768000D03*
X110871000Y-87968000D03*
X110871000Y-85768000D03*
X107061000Y-87968000D03*
X107061000Y-85768000D03*
X103251000Y-87968000D03*
X103251000Y-85768000D03*
X99441000Y-87968000D03*
X99441000Y-85768000D03*
X95631000Y-87968000D03*
X95631000Y-85768000D03*
X91821000Y-87968000D03*
X91821000Y-85768000D03*
X88011000Y-87968000D03*
X88011000Y-85768000D03*
X84201000Y-87968000D03*
X84201000Y-85768000D03*
X80391000Y-87968000D03*
X80391000Y-85768000D03*
X76581000Y-87968000D03*
X76581000Y-85768000D03*
X72771000Y-87968000D03*
X72771000Y-85768000D03*
X68961000Y-87968000D03*
X68961000Y-85768000D03*
X65151000Y-87968000D03*
X65151000Y-85768000D03*
X135636000Y-91397000D03*
X135636000Y-89197000D03*
X131826000Y-91397000D03*
X131826000Y-89197000D03*
X124206000Y-91397000D03*
X124206000Y-89197000D03*
X120396000Y-91397000D03*
X120396000Y-89197000D03*
X116586000Y-91397000D03*
X116586000Y-89197000D03*
X112776000Y-91397000D03*
X112776000Y-89197000D03*
X108966000Y-91397000D03*
X108966000Y-89197000D03*
X105156000Y-91397000D03*
X105156000Y-89197000D03*
X101346000Y-91397000D03*
X101346000Y-89197000D03*
X97536000Y-91397000D03*
X97536000Y-89197000D03*
X93726000Y-91397000D03*
X93726000Y-89197000D03*
X89916000Y-91397000D03*
X89916000Y-89197000D03*
X86106000Y-91397000D03*
X86106000Y-89197000D03*
X82296000Y-91397000D03*
X82296000Y-89197000D03*
X78486000Y-91397000D03*
X78486000Y-89197000D03*
X74676000Y-91397000D03*
X74676000Y-89197000D03*
X70866000Y-91397000D03*
X70866000Y-89197000D03*
X67056000Y-91397000D03*
X67056000Y-89197000D03*
X63246000Y-91397000D03*
X63246000Y-89197000D03*
X137541000Y-92540000D03*
X137541000Y-90340000D03*
X133731000Y-92540000D03*
X133731000Y-90340000D03*
X129921000Y-92540000D03*
X129921000Y-90340000D03*
X126111000Y-92540000D03*
X126111000Y-90340000D03*
X122301000Y-92540000D03*
X122301000Y-90340000D03*
X118491000Y-92540000D03*
X118491000Y-90340000D03*
X114681000Y-92540000D03*
X114681000Y-90340000D03*
X110871000Y-92540000D03*
X110871000Y-90340000D03*
X107061000Y-92540000D03*
X107061000Y-90340000D03*
X103251000Y-92540000D03*
X103251000Y-90340000D03*
X99441000Y-92540000D03*
X99441000Y-90340000D03*
X95631000Y-92540000D03*
X95631000Y-90340000D03*
X91821000Y-92540000D03*
X91821000Y-90340000D03*
X88011000Y-92540000D03*
X88011000Y-90340000D03*
X84201000Y-92540000D03*
X84201000Y-90340000D03*
X80391000Y-92540000D03*
X80391000Y-90340000D03*
X76581000Y-92540000D03*
X76581000Y-90340000D03*
X72771000Y-92540000D03*
X72771000Y-90340000D03*
X68961000Y-92540000D03*
X68961000Y-90340000D03*
X65151000Y-92540000D03*
X65151000Y-90340000D03*
X135636000Y-95969000D03*
X135636000Y-93769000D03*
X131826000Y-95969000D03*
X131826000Y-93769000D03*
X128016000Y-95969000D03*
X128016000Y-93769000D03*
X124206000Y-95969000D03*
X124206000Y-93769000D03*
X120396000Y-95969000D03*
X120396000Y-93769000D03*
X116586000Y-95969000D03*
X116586000Y-93769000D03*
X112776000Y-95969000D03*
X112776000Y-93769000D03*
X108966000Y-95969000D03*
X108966000Y-93769000D03*
X105156000Y-95969000D03*
X105156000Y-93769000D03*
X101346000Y-95969000D03*
X101346000Y-93769000D03*
X97536000Y-95969000D03*
X97536000Y-93769000D03*
X93726000Y-95969000D03*
X93726000Y-93769000D03*
X89916000Y-95969000D03*
X89916000Y-93769000D03*
X86106000Y-95969000D03*
X86106000Y-93769000D03*
X82296000Y-95969000D03*
X82296000Y-93769000D03*
X78486000Y-95969000D03*
X78486000Y-93769000D03*
X74676000Y-95969000D03*
X74676000Y-93769000D03*
X70866000Y-95969000D03*
X70866000Y-93769000D03*
X67056000Y-95969000D03*
X67056000Y-93769000D03*
X63246000Y-95969000D03*
X63246000Y-93769000D03*
X137541000Y-97112000D03*
X137541000Y-94912000D03*
X133731000Y-97112000D03*
X133731000Y-94912000D03*
X129921000Y-97112000D03*
X129921000Y-94912000D03*
X126111000Y-97112000D03*
X126111000Y-94912000D03*
X122301000Y-97112000D03*
X122301000Y-94912000D03*
X118491000Y-97112000D03*
X118491000Y-94912000D03*
X114681000Y-97112000D03*
X114681000Y-94912000D03*
X110871000Y-97112000D03*
X110871000Y-94912000D03*
X107061000Y-97112000D03*
X107061000Y-94912000D03*
X103251000Y-97112000D03*
X103251000Y-94912000D03*
X99441000Y-97112000D03*
X99441000Y-94912000D03*
X95631000Y-97112000D03*
X95631000Y-94912000D03*
X91821000Y-97112000D03*
X91821000Y-94912000D03*
X88011000Y-97112000D03*
X88011000Y-94912000D03*
X84201000Y-97112000D03*
X84201000Y-94912000D03*
X80391000Y-97112000D03*
X80391000Y-94912000D03*
X76581000Y-97112000D03*
X76581000Y-94912000D03*
X72771000Y-97112000D03*
X72771000Y-94912000D03*
X68961000Y-97112000D03*
X68961000Y-94912000D03*
X65151000Y-97112000D03*
X65151000Y-94912000D03*
X135636000Y-100541000D03*
X135636000Y-98341000D03*
X131826000Y-100541000D03*
X131826000Y-98341000D03*
X128016000Y-100541000D03*
X128016000Y-98341000D03*
X124206000Y-100541000D03*
X124206000Y-98341000D03*
X120396000Y-100541000D03*
X120396000Y-98341000D03*
X116586000Y-100541000D03*
X116586000Y-98341000D03*
X112776000Y-100541000D03*
X112776000Y-98341000D03*
X108966000Y-100541000D03*
X108966000Y-98341000D03*
X105156000Y-100541000D03*
X105156000Y-98341000D03*
X101346000Y-100541000D03*
X101346000Y-98341000D03*
X97536000Y-100541000D03*
X97536000Y-98341000D03*
X93726000Y-100541000D03*
X93726000Y-98341000D03*
X89916000Y-100541000D03*
X89916000Y-98341000D03*
X86106000Y-100541000D03*
X86106000Y-98341000D03*
X82296000Y-100541000D03*
X82296000Y-98341000D03*
X78486000Y-100541000D03*
X78486000Y-98341000D03*
X74676000Y-100541000D03*
X74676000Y-98341000D03*
X70866000Y-100541000D03*
X70866000Y-98341000D03*
X67056000Y-100541000D03*
X67056000Y-98341000D03*
X63246000Y-100541000D03*
X63246000Y-98341000D03*
X137541000Y-101684000D03*
X137541000Y-99484000D03*
X133731000Y-101684000D03*
X133731000Y-99484000D03*
X129921000Y-101684000D03*
X129921000Y-99484000D03*
X126111000Y-101684000D03*
X126111000Y-99484000D03*
X122301000Y-101684000D03*
X122301000Y-99484000D03*
X118491000Y-101684000D03*
X118491000Y-99484000D03*
X114681000Y-101684000D03*
X114681000Y-99484000D03*
X110871000Y-101684000D03*
X110871000Y-99484000D03*
X107061000Y-101684000D03*
X107061000Y-99484000D03*
X103251000Y-101684000D03*
X103251000Y-99484000D03*
X99441000Y-101684000D03*
X99441000Y-99484000D03*
X95631000Y-101684000D03*
X95631000Y-99484000D03*
X91821000Y-101684000D03*
X91821000Y-99484000D03*
X88011000Y-101684000D03*
X88011000Y-99484000D03*
X84201000Y-101684000D03*
X84201000Y-99484000D03*
X80391000Y-101684000D03*
X80391000Y-99484000D03*
X76581000Y-101684000D03*
X76581000Y-99484000D03*
X72771000Y-101684000D03*
X72771000Y-99484000D03*
X68961000Y-101684000D03*
X68961000Y-99484000D03*
X65151000Y-101684000D03*
X65151000Y-99484000D03*
D13*
X106230000Y-108980000D03*
X106230000Y-110880000D03*
X108230000Y-109930000D03*
X72406000Y-108778000D03*
X72406000Y-110678000D03*
X74406000Y-109728000D03*
X141360000Y-108780000D03*
X141360000Y-110680000D03*
X143360000Y-109730000D03*
X101660000Y-108980000D03*
X101660000Y-110880000D03*
X103660000Y-109930000D03*
X68088000Y-108778000D03*
X68088000Y-110678000D03*
X70088000Y-109728000D03*
X137200000Y-108725000D03*
X137200000Y-110625000D03*
X139200000Y-109675000D03*
X97540000Y-108970000D03*
X97540000Y-110870000D03*
X99540000Y-109920000D03*
X63770000Y-108778000D03*
X63770000Y-110678000D03*
X65770000Y-109728000D03*
X133050000Y-108850000D03*
X133050000Y-110750000D03*
X135050000Y-109800000D03*
X93410000Y-108900000D03*
X93410000Y-110800000D03*
X95410000Y-109850000D03*
X58944000Y-108778000D03*
X58944000Y-110678000D03*
X60944000Y-109728000D03*
X128660000Y-108940000D03*
X128660000Y-110840000D03*
X130660000Y-109890000D03*
X89424000Y-108778000D03*
X89424000Y-110678000D03*
X91424000Y-109728000D03*
X123930000Y-108820000D03*
X123930000Y-110720000D03*
X125930000Y-109770000D03*
X85360000Y-108778000D03*
X85360000Y-110678000D03*
X87360000Y-109728000D03*
X120090000Y-108940000D03*
X120090000Y-110840000D03*
X122090000Y-109890000D03*
X81042000Y-108778000D03*
X81042000Y-110678000D03*
X83042000Y-109728000D03*
X114895120Y-108798320D03*
X114895120Y-110698320D03*
X116895120Y-109748320D03*
X76978000Y-108778000D03*
X76978000Y-110678000D03*
X78978000Y-109728000D03*
D21*
X108458000Y-107014000D03*
X108458000Y-104314000D03*
X74676000Y-107014000D03*
X74676000Y-104314000D03*
X143550000Y-106770000D03*
X143550000Y-104070000D03*
X103886000Y-107014000D03*
X103886000Y-104314000D03*
X70358000Y-107014000D03*
X70358000Y-104314000D03*
X139400000Y-106775000D03*
X139400000Y-104075000D03*
X99568000Y-107014000D03*
X99568000Y-104314000D03*
X66040000Y-107014000D03*
X66040000Y-104314000D03*
X135250000Y-106950000D03*
X135250000Y-104250000D03*
X95504000Y-107014000D03*
X95504000Y-104314000D03*
X61722000Y-107014000D03*
X61722000Y-104314000D03*
X130810000Y-107014000D03*
X130810000Y-104314000D03*
X126492000Y-107014000D03*
X126492000Y-104314000D03*
X87376000Y-107014000D03*
X87376000Y-104314000D03*
X122174000Y-107014000D03*
X122174000Y-104314000D03*
X83058000Y-107014000D03*
X83058000Y-104314000D03*
X117856000Y-107014000D03*
X117856000Y-104314000D03*
X78994000Y-107014000D03*
X78994000Y-104314000D03*
X113030000Y-107014000D03*
X113030000Y-104314000D03*
X91440000Y-107014000D03*
X91440000Y-104314000D03*
X88700000Y-129450000D03*
X88700000Y-132150000D03*
D17*
X65700000Y-138100000D03*
D18*
X65700000Y-135560000D03*
D41*
X130302000Y-127428000D03*
X130302000Y-129428000D03*
D42*
X110000000Y-49000000D03*
X90000000Y-49000000D03*
D12*
X55200000Y-122850000D03*
X55200000Y-124350000D03*
X53900000Y-122850000D03*
X53900000Y-124350000D03*
X72900000Y-122850000D03*
X72900000Y-124350000D03*
X70300000Y-127150000D03*
X70300000Y-125650000D03*
X52700000Y-122850000D03*
X52700000Y-124350000D03*
X71700000Y-127150000D03*
X71700000Y-125650000D03*
X69000000Y-127150000D03*
X69000000Y-125650000D03*
X67700000Y-127150000D03*
X67700000Y-125650000D03*
X56500000Y-122850000D03*
X56500000Y-124350000D03*
X65400000Y-127150000D03*
X65400000Y-125650000D03*
X65319600Y-122850000D03*
X65319600Y-124350000D03*
X69028000Y-122748400D03*
X69028000Y-124248400D03*
X51500000Y-122850000D03*
X51500000Y-124350000D03*
X70247200Y-122799200D03*
X70247200Y-124299200D03*
X64202000Y-122850000D03*
X64202000Y-124350000D03*
X63048840Y-122855080D03*
X63048840Y-124355080D03*
X66589600Y-122850000D03*
X66589600Y-124350000D03*
X61800000Y-122750000D03*
X61800000Y-124250000D03*
X66600000Y-127150000D03*
X66600000Y-125650000D03*
X67808800Y-122850000D03*
X67808800Y-124350000D03*
X59200000Y-122750000D03*
X59200000Y-124250000D03*
X136650000Y-143800000D03*
X136650000Y-142300000D03*
X126481000Y-139586200D03*
X126481000Y-141086200D03*
X127598600Y-139586200D03*
X127598600Y-141086200D03*
X125363400Y-139586200D03*
X125363400Y-141086200D03*
X71600000Y-122850000D03*
X71600000Y-124350000D03*
X60500000Y-122750000D03*
X60500000Y-124250000D03*
X124296600Y-139611600D03*
X124296600Y-141111600D03*
X123199320Y-139601440D03*
X123199320Y-141101440D03*
X135600000Y-143800000D03*
X135600000Y-142300000D03*
X133250000Y-143800000D03*
X133250000Y-142300000D03*
X126455600Y-143829400D03*
X126455600Y-142329400D03*
X125338000Y-143854800D03*
X125338000Y-142354800D03*
X127573200Y-143829400D03*
X127573200Y-142329400D03*
X132050000Y-143800000D03*
X132050000Y-142300000D03*
X128741600Y-143829400D03*
X128741600Y-142329400D03*
X129884600Y-143829400D03*
X129884600Y-142329400D03*
X134450000Y-143800000D03*
X134450000Y-142300000D03*
X130926000Y-143804000D03*
X130926000Y-142304000D03*
X122100000Y-139600000D03*
X122100000Y-141100000D03*
D43*
X56000000Y-48375000D03*
X144000000Y-48125000D03*
D44*
X53050000Y-54450000D03*
X59050000Y-54500000D03*
X146750000Y-54350000D03*
X64900000Y-54500000D03*
X71150000Y-54500000D03*
X140850000Y-54350000D03*
X134900000Y-54450000D03*
X128950000Y-54500000D03*
D45*
X79700000Y-133100000D03*
X79700000Y-125100000D03*
M02*
