M48
;DRILL file {KiCad 4.0.7} date 05/17/20 22:24:16
;FORMAT={-:-/ absolute / metric / decimal}
FMAT,2
METRIC,TZ
T1C0.400
T2C1.000
T3C1.100
T4C4.000
%
G90
G05
M71
T1
X57.175Y-115.189
X57.8Y-135.1
X57.82Y-110.84
X57.9Y-134.
X58.649Y-113.182
X58.708Y-88.336
X58.838Y-74.336
X58.838Y-83.626
X58.868Y-78.856
X58.918Y-92.976
X58.978Y-64.896
X58.998Y-60.236
X59.028Y-69.576
X59.358Y-95.566
X59.558Y-100.326
X60.9Y-138.7
X61.646Y-115.367
X62.1Y-131.1
X62.148Y-114.296
X62.3Y-134.5
X62.9Y-110.72
X64.613Y-136.759
X65.13Y-86.9
X65.14Y-100.64
X65.15Y-77.74
X65.15Y-91.46
X65.16Y-82.3
X65.17Y-64.1
X65.18Y-59.47
X65.2Y-68.59
X65.2Y-96.03
X65.23Y-73.2
X65.4Y-135.1
X65.913Y-115.392
X66.675Y-141.707
X66.748Y-114.376
X66.92Y-110.97
X67.5Y-126.7
X68.8Y-127.9
X68.8Y-129.7
X68.93Y-82.32
X68.94Y-100.63
X68.95Y-86.91
X68.95Y-91.49
X68.95Y-96.05
X68.96Y-59.44
X68.96Y-77.74
X68.97Y-68.61
X68.98Y-64.05
X68.98Y-73.16
X69.Y-128.8
X69.24Y-141.605
X70.942Y-115.138
X71.14Y-110.98
X71.278Y-114.256
X71.501Y-141.605
X72.68Y-82.3
X72.7Y-96.07
X72.72Y-59.47
X72.73Y-86.9
X72.74Y-91.49
X72.76Y-64.06
X72.77Y-68.61
X72.77Y-77.79
X72.78Y-73.19
X72.79Y-100.61
X74.092Y-141.656
X74.955Y-115.341
X75.59Y-110.84
X75.688Y-114.426
X76.51Y-82.3
X76.52Y-86.95
X76.53Y-96.08
X76.55Y-77.74
X76.55Y-91.5
X76.55Y-100.6
X76.556Y-141.63
X76.56Y-59.45
X76.6Y-64.05
X76.6Y-73.18
X76.61Y-68.6
X78.791Y-141.605
X79.019Y-136.754
X79.578Y-115.443
X80.12Y-111.02
X80.128Y-114.446
X80.31Y-73.16
X80.32Y-100.6
X80.36Y-77.75
X80.36Y-91.51
X80.37Y-68.6
X80.38Y-59.45
X80.38Y-86.87
X80.39Y-64.01
X80.4Y-96.06
X80.41Y-82.31
X81.Y-133.5
X81.Y-134.3
X82.956Y-142.951
X83.7Y-137.3
X84.023Y-115.24
X84.11Y-64.05
X84.12Y-82.33
X84.14Y-77.78
X84.16Y-59.46
X84.16Y-86.91
X84.16Y-96.03
X84.18Y-100.6
X84.19Y-73.19
X84.2Y-91.46
X84.23Y-68.61
X84.3Y-111.01
X84.4Y-137.7
X84.628Y-114.336
X85.35Y-139.43
X87.92Y-68.65
X87.93Y-86.88
X87.95Y-64.07
X87.95Y-73.17
X87.95Y-82.31
X87.97Y-59.52
X87.97Y-77.82
X87.97Y-100.6
X87.98Y-96.02
X87.99Y-91.49
X88.1Y-124.9
X88.19Y-110.92
X88.47Y-121.74
X88.519Y-115.138
X88.6Y-135.6
X88.648Y-138.036
X88.87Y-121.03
X89.268Y-114.336
X89.27Y-120.32
X89.9Y-128.7
X90.1Y-129.7
X90.225Y-120.15
X91.1Y-120.075
X91.82Y-100.66
X91.84Y-68.61
X91.85Y-77.83
X91.86Y-59.47
X91.86Y-86.88
X91.86Y-96.04
X91.87Y-91.46
X91.89Y-73.16
X91.9Y-82.33
X91.92Y-64.01
X92.08Y-119.97
X92.47Y-111.03
X93.09Y-119.97
X94.14Y-119.99
X94.59Y-113.436
X94.628Y-137.326
X95.08Y-120.
X95.478Y-137.256
X95.56Y-82.3
X95.58Y-91.46
X95.59Y-64.05
X95.59Y-96.03
X95.61Y-68.59
X95.62Y-59.48
X95.62Y-86.87
X95.63Y-73.22
X95.65Y-77.73
X95.69Y-100.63
X95.74Y-120.54
X95.748Y-138.396
X96.31Y-110.97
X96.488Y-137.346
X97.428Y-137.376
X98.158Y-114.176
X98.31Y-137.42
X98.798Y-131.696
X98.868Y-133.556
X98.878Y-132.646
X98.88Y-136.66
X98.938Y-134.596
X98.948Y-135.656
X99.36Y-128.14
X99.39Y-73.16
X99.4Y-64.02
X99.41Y-96.03
X99.43Y-82.34
X99.45Y-59.47
X99.45Y-77.73
X99.45Y-100.65
X99.46Y-86.91
X99.46Y-91.46
X99.47Y-68.6
X99.718Y-131.526
X99.76Y-129.04
X99.771Y-142.088
X99.99Y-127.6
X100.048Y-126.506
X100.13Y-130.12
X100.278Y-130.946
X100.279Y-143.053
X100.37Y-110.96
X102.128Y-142.116
X102.648Y-114.396
X103.23Y-96.03
X103.24Y-100.61
X103.26Y-86.88
X103.27Y-59.48
X103.27Y-77.78
X103.27Y-91.47
X103.28Y-68.59
X103.29Y-82.33
X103.3Y-73.16
X103.31Y-64.1
X103.548Y-142.126
X104.26Y-134.92
X104.58Y-133.75
X104.718Y-132.496
X104.86Y-110.94
X104.958Y-131.556
X105.018Y-130.486
X105.458Y-129.816
X105.868Y-129.066
X105.908Y-128.196
X106.378Y-127.406
X106.748Y-138.576
X106.978Y-114.216
X107.018Y-126.916
X107.06Y-64.07
X107.06Y-82.31
X107.08Y-59.44
X107.08Y-100.63
X107.1Y-73.18
X107.1Y-77.75
X107.1Y-91.47
X107.11Y-86.87
X107.12Y-96.03
X107.13Y-68.59
X107.41Y-133.54
X109.81Y-110.73
X110.718Y-127.466
X110.8Y-86.87
X110.81Y-59.44
X110.85Y-68.6
X110.85Y-77.76
X110.86Y-73.19
X110.86Y-91.49
X110.86Y-100.6
X110.87Y-96.03
X110.878Y-124.206
X110.88Y-82.32
X110.91Y-64.02
X111.418Y-114.356
X112.638Y-131.896
X113.698Y-131.476
X113.85Y-110.97
X113.938Y-137.156
X114.59Y-100.61
X114.64Y-68.59
X114.64Y-86.87
X114.65Y-59.46
X114.65Y-96.05
X114.67Y-82.32
X114.67Y-91.45
X114.69Y-64.08
X114.69Y-77.74
X114.7Y-73.17
X114.868Y-133.076
X114.868Y-134.216
X115.948Y-114.346
X117.058Y-131.586
X117.158Y-129.136
X118.358Y-131.006
X118.45Y-68.59
X118.46Y-82.33
X118.46Y-91.48
X118.47Y-59.44
X118.47Y-64.02
X118.47Y-73.18
X118.47Y-86.87
X118.48Y-77.8
X118.48Y-100.66
X118.52Y-96.02
X118.62Y-110.96
X118.648Y-137.216
X119.798Y-130.976
X120.348Y-114.286
X121.768Y-139.416
X122.1Y-123.1
X122.1Y-125.5
X122.26Y-59.45
X122.27Y-68.64
X122.28Y-86.9
X122.29Y-100.61
X122.3Y-64.01
X122.3Y-77.75
X122.3Y-82.34
X122.31Y-73.17
X122.31Y-96.04
X122.32Y-91.45
X122.6Y-111.02
X123.3Y-125.6
X124.808Y-114.326
X125.004Y-135.415
X125.324Y-141.884
X126.09Y-100.62
X126.13Y-91.45
X126.14Y-59.46
X126.14Y-68.63
X126.14Y-82.3
X126.14Y-86.88
X126.14Y-96.07
X126.16Y-73.17
X126.17Y-64.02
X126.19Y-77.74
X126.289Y-134.239
X126.83Y-127.89
X126.878Y-126.026
X127.25Y-111.
X127.457Y-141.834
X127.69Y-128.44
X127.738Y-125.696
X128.53Y-128.4
X128.7Y-125.79
X128.778Y-120.904
X129.01Y-124.01
X129.188Y-133.386
X129.378Y-114.356
X129.667Y-141.884
X129.838Y-125.616
X129.86Y-100.61
X129.88Y-91.45
X129.89Y-73.17
X129.89Y-96.04
X129.898Y-133.986
X129.9Y-59.47
X129.9Y-64.05
X129.9Y-77.74
X129.9Y-82.3
X129.91Y-86.87
X129.94Y-68.6
X131.29Y-127.368
X131.29Y-128.118
X131.826Y-120.396
X131.83Y-110.86
X132.029Y-141.884
X132.04Y-127.368
X132.04Y-128.118
X132.628Y-128.676
X133.35Y-121.158
X133.498Y-129.506
X133.682Y-123.008
X133.73Y-100.59
X133.76Y-59.44
X133.79Y-68.63
X133.79Y-73.17
X133.8Y-64.02
X133.8Y-77.74
X133.8Y-86.87
X133.8Y-96.03
X133.808Y-114.486
X133.81Y-82.32
X133.81Y-91.51
X133.888Y-130.116
X133.909Y-141.859
X134.288Y-122.476
X134.558Y-123.506
X134.698Y-126.818
X134.848Y-124.246
X134.978Y-125.096
X134.988Y-125.886
X134.998Y-134.276
X135.077Y-137.185
X135.098Y-130.846
X135.228Y-122.556
X135.718Y-133.386
X135.978Y-131.406
X136.318Y-122.586
X136.38Y-110.84
X137.168Y-122.906
X137.378Y-131.506
X137.46Y-91.46
X137.48Y-82.3
X137.48Y-96.04
X137.51Y-59.45
X137.51Y-73.21
X137.51Y-86.95
X137.54Y-68.64
X137.55Y-64.03
X137.56Y-100.64
X137.57Y-77.74
X138.06Y-123.54
X138.298Y-137.476
X138.438Y-114.486
X138.7Y-131.11
X138.77Y-129.19
X138.81Y-124.49
X138.82Y-130.21
X141.03Y-110.81
X141.758Y-100.126
X141.798Y-58.026
X141.828Y-81.416
X141.858Y-62.656
X141.878Y-72.036
X141.878Y-76.546
X141.918Y-67.176
X141.958Y-85.966
X141.958Y-90.726
X141.958Y-95.436
X142.858Y-114.286
X143.75Y-100.53
X143.998Y-86.246
X144.048Y-81.626
X144.108Y-67.466
X144.11Y-95.65
X144.168Y-62.656
X144.258Y-90.836
X144.338Y-76.726
X144.428Y-72.206
X144.478Y-58.076
X146.609Y-142.011
X146.888Y-140.487
X148.641Y-140.462
T2
X52.1Y-127.1
X52.2Y-123.5
X54.64Y-127.1
X54.74Y-123.5
X57.18Y-127.1
X57.28Y-123.5
X59.72Y-127.1
X59.82Y-123.5
X63.7Y-128.76
X63.7Y-131.3
X64.567Y-142.85
X73.5Y-127.4
X134.442Y-142.977
T3
X52.1Y-130.3
X52.1Y-136.8
X56.6Y-130.3
X56.6Y-136.8
T4
X56.2Y-152.975
X65.2Y-152.975
X135.6Y-153.075
X144.6Y-153.075
T0
M30
