G04 #@! TF.FileFunction,Legend,Bot*
%FSLAX46Y46*%
G04 Gerber Fmt 4.6, Leading zero omitted, Abs format (unit mm)*
G04 Created by KiCad (PCBNEW 4.0.7) date 05/19/20 22:09:12*
%MOMM*%
%LPD*%
G01*
G04 APERTURE LIST*
%ADD10C,0.100000*%
%ADD11C,0.150000*%
%ADD12C,0.200000*%
G04 APERTURE END LIST*
D10*
D11*
X143577381Y-127728571D02*
X142577381Y-127728571D01*
X142577381Y-128109524D01*
X142625000Y-128204762D01*
X142672619Y-128252381D01*
X142767857Y-128300000D01*
X142910714Y-128300000D01*
X143005952Y-128252381D01*
X143053571Y-128204762D01*
X143101190Y-128109524D01*
X143101190Y-127728571D01*
X143053571Y-128728571D02*
X143053571Y-129061905D01*
X143577381Y-129204762D02*
X143577381Y-128728571D01*
X142577381Y-128728571D01*
X142577381Y-129204762D01*
X143577381Y-130204762D02*
X143101190Y-129871428D01*
X143577381Y-129633333D02*
X142577381Y-129633333D01*
X142577381Y-130014286D01*
X142625000Y-130109524D01*
X142672619Y-130157143D01*
X142767857Y-130204762D01*
X142910714Y-130204762D01*
X143005952Y-130157143D01*
X143053571Y-130109524D01*
X143101190Y-130014286D01*
X143101190Y-129633333D01*
X143529762Y-130585714D02*
X143577381Y-130728571D01*
X143577381Y-130966667D01*
X143529762Y-131061905D01*
X143482143Y-131109524D01*
X143386905Y-131157143D01*
X143291667Y-131157143D01*
X143196429Y-131109524D01*
X143148810Y-131061905D01*
X143101190Y-130966667D01*
X143053571Y-130776190D01*
X143005952Y-130680952D01*
X142958333Y-130633333D01*
X142863095Y-130585714D01*
X142767857Y-130585714D01*
X142672619Y-130633333D01*
X142625000Y-130680952D01*
X142577381Y-130776190D01*
X142577381Y-131014286D01*
X142625000Y-131157143D01*
X143577381Y-131585714D02*
X142577381Y-131585714D01*
X143529762Y-132014285D02*
X143577381Y-132157142D01*
X143577381Y-132395238D01*
X143529762Y-132490476D01*
X143482143Y-132538095D01*
X143386905Y-132585714D01*
X143291667Y-132585714D01*
X143196429Y-132538095D01*
X143148810Y-132490476D01*
X143101190Y-132395238D01*
X143053571Y-132204761D01*
X143005952Y-132109523D01*
X142958333Y-132061904D01*
X142863095Y-132014285D01*
X142767857Y-132014285D01*
X142672619Y-132061904D01*
X142625000Y-132109523D01*
X142577381Y-132204761D01*
X142577381Y-132442857D01*
X142625000Y-132585714D01*
X142577381Y-132871428D02*
X142577381Y-133442857D01*
X143577381Y-133157142D02*
X142577381Y-133157142D01*
X143053571Y-133776190D02*
X143053571Y-134109524D01*
X143577381Y-134252381D02*
X143577381Y-133776190D01*
X142577381Y-133776190D01*
X142577381Y-134252381D01*
X143577381Y-134680952D02*
X142577381Y-134680952D01*
X143577381Y-135252381D01*
X142577381Y-135252381D01*
X143482143Y-136300000D02*
X143529762Y-136252381D01*
X143577381Y-136109524D01*
X143577381Y-136014286D01*
X143529762Y-135871428D01*
X143434524Y-135776190D01*
X143339286Y-135728571D01*
X143148810Y-135680952D01*
X143005952Y-135680952D01*
X142815476Y-135728571D01*
X142720238Y-135776190D01*
X142625000Y-135871428D01*
X142577381Y-136014286D01*
X142577381Y-136109524D01*
X142625000Y-136252381D01*
X142672619Y-136300000D01*
X143053571Y-136728571D02*
X143053571Y-137061905D01*
X143577381Y-137204762D02*
X143577381Y-136728571D01*
X142577381Y-136728571D01*
X142577381Y-137204762D01*
X143577381Y-138395238D02*
X142577381Y-138395238D01*
X142577381Y-138633333D01*
X142625000Y-138776191D01*
X142720238Y-138871429D01*
X142815476Y-138919048D01*
X143005952Y-138966667D01*
X143148810Y-138966667D01*
X143339286Y-138919048D01*
X143434524Y-138871429D01*
X143529762Y-138776191D01*
X143577381Y-138633333D01*
X143577381Y-138395238D01*
X143577381Y-139395238D02*
X142577381Y-139395238D01*
X143529762Y-139823809D02*
X143577381Y-139966666D01*
X143577381Y-140204762D01*
X143529762Y-140300000D01*
X143482143Y-140347619D01*
X143386905Y-140395238D01*
X143291667Y-140395238D01*
X143196429Y-140347619D01*
X143148810Y-140300000D01*
X143101190Y-140204762D01*
X143053571Y-140014285D01*
X143005952Y-139919047D01*
X142958333Y-139871428D01*
X142863095Y-139823809D01*
X142767857Y-139823809D01*
X142672619Y-139871428D01*
X142625000Y-139919047D01*
X142577381Y-140014285D01*
X142577381Y-140252381D01*
X142625000Y-140395238D01*
X143577381Y-140823809D02*
X142577381Y-140823809D01*
X142577381Y-141204762D01*
X142625000Y-141300000D01*
X142672619Y-141347619D01*
X142767857Y-141395238D01*
X142910714Y-141395238D01*
X143005952Y-141347619D01*
X143053571Y-141300000D01*
X143101190Y-141204762D01*
X143101190Y-140823809D01*
X143577381Y-142300000D02*
X143577381Y-141823809D01*
X142577381Y-141823809D01*
X143291667Y-142585714D02*
X143291667Y-143061905D01*
X143577381Y-142490476D02*
X142577381Y-142823809D01*
X143577381Y-143157143D01*
X143101190Y-143680952D02*
X143577381Y-143680952D01*
X142577381Y-143347619D02*
X143101190Y-143680952D01*
X142577381Y-144014286D01*
X144703571Y-129657143D02*
X144751190Y-129800000D01*
X144798810Y-129847619D01*
X144894048Y-129895238D01*
X145036905Y-129895238D01*
X145132143Y-129847619D01*
X145179762Y-129800000D01*
X145227381Y-129704762D01*
X145227381Y-129323809D01*
X144227381Y-129323809D01*
X144227381Y-129657143D01*
X144275000Y-129752381D01*
X144322619Y-129800000D01*
X144417857Y-129847619D01*
X144513095Y-129847619D01*
X144608333Y-129800000D01*
X144655952Y-129752381D01*
X144703571Y-129657143D01*
X144703571Y-129323809D01*
X144751190Y-130514285D02*
X145227381Y-130514285D01*
X144227381Y-130180952D02*
X144751190Y-130514285D01*
X144227381Y-130847619D01*
X145227381Y-131942857D02*
X144227381Y-131942857D01*
X144227381Y-132180952D01*
X144275000Y-132323810D01*
X144370238Y-132419048D01*
X144465476Y-132466667D01*
X144655952Y-132514286D01*
X144798810Y-132514286D01*
X144989286Y-132466667D01*
X145084524Y-132419048D01*
X145179762Y-132323810D01*
X145227381Y-132180952D01*
X145227381Y-131942857D01*
X144941667Y-132895238D02*
X144941667Y-133371429D01*
X145227381Y-132800000D02*
X144227381Y-133133333D01*
X145227381Y-133466667D01*
X145227381Y-133800000D02*
X144227381Y-133800000D01*
X145227381Y-134371429D01*
X144227381Y-134371429D01*
X145227381Y-134847619D02*
X144227381Y-134847619D01*
X144703571Y-135323809D02*
X144703571Y-135657143D01*
X145227381Y-135800000D02*
X145227381Y-135323809D01*
X144227381Y-135323809D01*
X144227381Y-135800000D01*
X145227381Y-136704762D02*
X145227381Y-136228571D01*
X144227381Y-136228571D01*
X145227381Y-137800000D02*
X144227381Y-137800000D01*
X144941667Y-138133334D01*
X144227381Y-138466667D01*
X145227381Y-138466667D01*
X144941667Y-138895238D02*
X144941667Y-139371429D01*
X145227381Y-138800000D02*
X144227381Y-139133333D01*
X145227381Y-139466667D01*
X145227381Y-140371429D02*
X144751190Y-140038095D01*
X145227381Y-139800000D02*
X144227381Y-139800000D01*
X144227381Y-140180953D01*
X144275000Y-140276191D01*
X144322619Y-140323810D01*
X144417857Y-140371429D01*
X144560714Y-140371429D01*
X144655952Y-140323810D01*
X144703571Y-140276191D01*
X144751190Y-140180953D01*
X144751190Y-139800000D01*
X145227381Y-140800000D02*
X144227381Y-140800000D01*
X145227381Y-141371429D02*
X144655952Y-140942857D01*
X144227381Y-141371429D02*
X144798810Y-140800000D01*
X145179762Y-141752381D02*
X145227381Y-141895238D01*
X145227381Y-142133334D01*
X145179762Y-142228572D01*
X145132143Y-142276191D01*
X145036905Y-142323810D01*
X144941667Y-142323810D01*
X144846429Y-142276191D01*
X144798810Y-142228572D01*
X144751190Y-142133334D01*
X144703571Y-141942857D01*
X144655952Y-141847619D01*
X144608333Y-141800000D01*
X144513095Y-141752381D01*
X144417857Y-141752381D01*
X144322619Y-141800000D01*
X144275000Y-141847619D01*
X144227381Y-141942857D01*
X144227381Y-142180953D01*
X144275000Y-142323810D01*
X146782143Y-130966667D02*
X146829762Y-130919048D01*
X146877381Y-130776191D01*
X146877381Y-130680953D01*
X146829762Y-130538095D01*
X146734524Y-130442857D01*
X146639286Y-130395238D01*
X146448810Y-130347619D01*
X146305952Y-130347619D01*
X146115476Y-130395238D01*
X146020238Y-130442857D01*
X145925000Y-130538095D01*
X145877381Y-130680953D01*
X145877381Y-130776191D01*
X145925000Y-130919048D01*
X145972619Y-130966667D01*
X146782143Y-131966667D02*
X146829762Y-131919048D01*
X146877381Y-131776191D01*
X146877381Y-131680953D01*
X146829762Y-131538095D01*
X146734524Y-131442857D01*
X146639286Y-131395238D01*
X146448810Y-131347619D01*
X146305952Y-131347619D01*
X146115476Y-131395238D01*
X146020238Y-131442857D01*
X145925000Y-131538095D01*
X145877381Y-131680953D01*
X145877381Y-131776191D01*
X145925000Y-131919048D01*
X145972619Y-131966667D01*
X146496429Y-132395238D02*
X146496429Y-133157143D01*
X146353571Y-133966667D02*
X146401190Y-134109524D01*
X146448810Y-134157143D01*
X146544048Y-134204762D01*
X146686905Y-134204762D01*
X146782143Y-134157143D01*
X146829762Y-134109524D01*
X146877381Y-134014286D01*
X146877381Y-133633333D01*
X145877381Y-133633333D01*
X145877381Y-133966667D01*
X145925000Y-134061905D01*
X145972619Y-134109524D01*
X146067857Y-134157143D01*
X146163095Y-134157143D01*
X146258333Y-134109524D01*
X146305952Y-134061905D01*
X146353571Y-133966667D01*
X146353571Y-133633333D01*
X146401190Y-134823809D02*
X146877381Y-134823809D01*
X145877381Y-134490476D02*
X146401190Y-134823809D01*
X145877381Y-135157143D01*
X146496429Y-135490476D02*
X146496429Y-136252381D01*
X146829762Y-136680952D02*
X146877381Y-136823809D01*
X146877381Y-137061905D01*
X146829762Y-137157143D01*
X146782143Y-137204762D01*
X146686905Y-137252381D01*
X146591667Y-137252381D01*
X146496429Y-137204762D01*
X146448810Y-137157143D01*
X146401190Y-137061905D01*
X146353571Y-136871428D01*
X146305952Y-136776190D01*
X146258333Y-136728571D01*
X146163095Y-136680952D01*
X146067857Y-136680952D01*
X145972619Y-136728571D01*
X145925000Y-136776190D01*
X145877381Y-136871428D01*
X145877381Y-137109524D01*
X145925000Y-137252381D01*
X146591667Y-137633333D02*
X146591667Y-138109524D01*
X146877381Y-137538095D02*
X145877381Y-137871428D01*
X146877381Y-138204762D01*
X146210714Y-139728572D02*
X146877381Y-139728572D01*
X145829762Y-139490476D02*
X146544048Y-139252381D01*
X146544048Y-139871429D01*
X146782143Y-140252381D02*
X146829762Y-140300000D01*
X146877381Y-140252381D01*
X146829762Y-140204762D01*
X146782143Y-140252381D01*
X146877381Y-140252381D01*
X145877381Y-140919047D02*
X145877381Y-141014286D01*
X145925000Y-141109524D01*
X145972619Y-141157143D01*
X146067857Y-141204762D01*
X146258333Y-141252381D01*
X146496429Y-141252381D01*
X146686905Y-141204762D01*
X146782143Y-141157143D01*
X146829762Y-141109524D01*
X146877381Y-141014286D01*
X146877381Y-140919047D01*
X146829762Y-140823809D01*
X146782143Y-140776190D01*
X146686905Y-140728571D01*
X146496429Y-140680952D01*
X146258333Y-140680952D01*
X146067857Y-140728571D01*
X145972619Y-140776190D01*
X145925000Y-140823809D01*
X145877381Y-140919047D01*
D12*
X95313500Y-29527500D02*
X95377000Y-29527500D01*
M02*
