G04 #@! TF.FileFunction,Soldermask,Top*
%FSLAX46Y46*%
G04 Gerber Fmt 4.6, Leading zero omitted, Abs format (unit mm)*
G04 Created by KiCad (PCBNEW 4.0.7) date 04/27/20 21:11:08*
%MOMM*%
%LPD*%
G01*
G04 APERTURE LIST*
%ADD10C,0.100000*%
%ADD11R,1.600000X1.600000*%
%ADD12R,1.400000X1.400000*%
%ADD13R,1.000000X0.800000*%
%ADD14R,1.900000X1.650000*%
%ADD15R,2.100000X2.100000*%
%ADD16O,2.100000X2.100000*%
%ADD17C,2.400000*%
%ADD18R,1.650000X1.900000*%
%ADD19R,1.700000X1.900000*%
%ADD20R,2.400000X4.200000*%
%ADD21R,2.400000X1.900000*%
%ADD22R,3.900000X2.800000*%
%ADD23R,1.400000X2.200000*%
%ADD24R,1.000000X0.900000*%
%ADD25R,0.900000X1.000000*%
%ADD26R,0.800000X1.000000*%
%ADD27R,1.800000X1.600000*%
%ADD28R,1.130000X0.700000*%
%ADD29R,0.700000X1.130000*%
%ADD30R,1.150000X1.150000*%
%ADD31R,0.680000X1.900000*%
%ADD32R,1.900000X0.680000*%
%ADD33R,2.900000X2.400000*%
%ADD34R,2.100000X1.700000*%
%ADD35R,1.900000X1.700000*%
%ADD36R,2.900000X2.200000*%
%ADD37R,40.400000X6.400000*%
%ADD38R,1.950000X1.000000*%
%ADD39R,1.200000X1.300000*%
%ADD40R,1.300000X1.200000*%
%ADD41R,4.400000X2.900000*%
%ADD42R,1.650000X1.400000*%
G04 APERTURE END LIST*
D10*
D11*
X128016000Y-91397000D03*
X128016000Y-89197000D03*
X82296000Y-59393000D03*
X82296000Y-57193000D03*
X120396000Y-59393000D03*
X120396000Y-57193000D03*
D12*
X118368000Y-125596000D03*
X120868000Y-125596000D03*
D13*
X134878000Y-128556000D03*
X134878000Y-127656000D03*
D14*
X115098000Y-137176000D03*
X112598000Y-137176000D03*
X117378000Y-137146000D03*
X119878000Y-137146000D03*
D15*
X83826000Y-126476000D03*
D16*
X83826000Y-129016000D03*
X83826000Y-131556000D03*
X83826000Y-134096000D03*
D17*
X75648000Y-128476000D03*
X75648000Y-132976000D03*
X69148000Y-128476000D03*
X69148000Y-132976000D03*
D18*
X121798000Y-140676000D03*
X121798000Y-138176000D03*
X85618000Y-138116000D03*
X85618000Y-140616000D03*
D14*
X89928000Y-137996000D03*
X87428000Y-137996000D03*
D19*
X65738000Y-133676000D03*
X65738000Y-130976000D03*
D20*
X52478000Y-132516000D03*
D21*
X58778000Y-132516000D03*
X58778000Y-130216000D03*
X58778000Y-134816000D03*
D18*
X61058000Y-135386000D03*
X61058000Y-132886000D03*
X78458000Y-132736000D03*
X78458000Y-130236000D03*
D19*
X63538000Y-132906000D03*
X63538000Y-135606000D03*
X80468000Y-130016000D03*
X80468000Y-132716000D03*
D14*
X87408000Y-135126000D03*
X89908000Y-135126000D03*
D18*
X51968000Y-125016000D03*
X51968000Y-127516000D03*
D22*
X118708000Y-140126000D03*
X113508000Y-140126000D03*
D23*
X89768000Y-139936000D03*
X87268000Y-139936000D03*
D24*
X132758000Y-123816000D03*
X131658000Y-123816000D03*
X132718000Y-124696000D03*
X131618000Y-124696000D03*
X129498000Y-124676000D03*
X130598000Y-124676000D03*
D25*
X129928000Y-133356000D03*
X129928000Y-132256000D03*
X134952000Y-133464000D03*
X134952000Y-132364000D03*
D24*
X137283000Y-129981000D03*
X136183000Y-129981000D03*
X137263000Y-129291000D03*
X136163000Y-129291000D03*
X136933000Y-127671000D03*
X138033000Y-127671000D03*
D25*
X138773000Y-126451000D03*
X138773000Y-127551000D03*
D26*
X136363000Y-127641000D03*
X135463000Y-127641000D03*
D13*
X135493000Y-129341000D03*
X135493000Y-128441000D03*
D26*
X132943000Y-130851000D03*
X132043000Y-130851000D03*
D13*
X133608000Y-123826000D03*
X133608000Y-124726000D03*
D27*
X131443000Y-133701000D03*
X133643000Y-133701000D03*
X133643000Y-132001000D03*
X131443000Y-132001000D03*
D15*
X71898000Y-124626000D03*
D16*
X74438000Y-124626000D03*
X76978000Y-124626000D03*
X79518000Y-124626000D03*
D28*
X129700000Y-126743000D03*
X129700000Y-127243000D03*
X129700000Y-127743000D03*
X129700000Y-128243000D03*
X129700000Y-128743000D03*
D29*
X130665000Y-129708000D03*
X131165000Y-129708000D03*
X131665000Y-129708000D03*
X132165000Y-129708000D03*
X132665000Y-129708000D03*
D28*
X133630000Y-128743000D03*
X133630000Y-128243000D03*
X133630000Y-127743000D03*
X133630000Y-127243000D03*
X133630000Y-126743000D03*
D29*
X132665000Y-125778000D03*
X132165000Y-125778000D03*
X131665000Y-125778000D03*
X131165000Y-125778000D03*
X130665000Y-125778000D03*
D30*
X132040000Y-128118000D03*
X132040000Y-127368000D03*
X131290000Y-128118000D03*
X131290000Y-127368000D03*
D31*
X95098000Y-140726000D03*
X95598000Y-140726000D03*
X96098000Y-140726000D03*
X96598000Y-140726000D03*
X97098000Y-140726000D03*
X97598000Y-140726000D03*
X98098000Y-140726000D03*
X98598000Y-140726000D03*
X99098000Y-140726000D03*
X99598000Y-140726000D03*
X100098000Y-140726000D03*
X100598000Y-140726000D03*
X101098000Y-140726000D03*
X101598000Y-140726000D03*
X102098000Y-140726000D03*
X102598000Y-140726000D03*
X103098000Y-140726000D03*
X103598000Y-140726000D03*
X104098000Y-140726000D03*
X104598000Y-140726000D03*
X105098000Y-140726000D03*
X105598000Y-140726000D03*
X106098000Y-140726000D03*
X106598000Y-140726000D03*
X107098000Y-140726000D03*
D32*
X108998000Y-138826000D03*
X108998000Y-138326000D03*
X108998000Y-137826000D03*
X108998000Y-137326000D03*
X108998000Y-136826000D03*
X108998000Y-136326000D03*
X108998000Y-135826000D03*
X108998000Y-135326000D03*
X108998000Y-134826000D03*
X108998000Y-134326000D03*
X108998000Y-133826000D03*
X108998000Y-133326000D03*
X108998000Y-132826000D03*
X108998000Y-132326000D03*
X108998000Y-131826000D03*
X108998000Y-131326000D03*
X108998000Y-130826000D03*
X108998000Y-130326000D03*
X108998000Y-129826000D03*
X108998000Y-129326000D03*
X108998000Y-128826000D03*
X108998000Y-128326000D03*
X108998000Y-127826000D03*
X108998000Y-127326000D03*
X108998000Y-126826000D03*
D31*
X107098000Y-124926000D03*
X106598000Y-124926000D03*
X106098000Y-124926000D03*
X105598000Y-124926000D03*
X105098000Y-124926000D03*
X104598000Y-124926000D03*
X104098000Y-124926000D03*
X103598000Y-124926000D03*
X103098000Y-124926000D03*
X102598000Y-124926000D03*
X102098000Y-124926000D03*
X101598000Y-124926000D03*
X101098000Y-124926000D03*
X100598000Y-124926000D03*
X100098000Y-124926000D03*
X99598000Y-124926000D03*
X99098000Y-124926000D03*
X98598000Y-124926000D03*
X98098000Y-124926000D03*
X97598000Y-124926000D03*
X97098000Y-124926000D03*
X96598000Y-124926000D03*
X96098000Y-124926000D03*
X95598000Y-124926000D03*
X95098000Y-124926000D03*
D32*
X93198000Y-126826000D03*
X93198000Y-127326000D03*
X93198000Y-127826000D03*
X93198000Y-128326000D03*
X93198000Y-128826000D03*
X93198000Y-129326000D03*
X93198000Y-129826000D03*
X93198000Y-130326000D03*
X93198000Y-130826000D03*
X93198000Y-131326000D03*
X93198000Y-131826000D03*
X93198000Y-132326000D03*
X93198000Y-132826000D03*
X93198000Y-133326000D03*
X93198000Y-133826000D03*
X93198000Y-134326000D03*
X93198000Y-134826000D03*
X93198000Y-135326000D03*
X93198000Y-135826000D03*
X93198000Y-136326000D03*
X93198000Y-136826000D03*
X93198000Y-137326000D03*
X93198000Y-137826000D03*
X93198000Y-138326000D03*
X93198000Y-138826000D03*
D33*
X126578000Y-140936000D03*
X126578000Y-136936000D03*
D18*
X123380000Y-123490000D03*
X123380000Y-125990000D03*
D33*
X129768000Y-140946000D03*
X129768000Y-136946000D03*
X68178000Y-140696000D03*
X68178000Y-136696000D03*
X74988000Y-140746000D03*
X74988000Y-136746000D03*
X133356000Y-140922000D03*
X133356000Y-136922000D03*
D34*
X78118000Y-140776000D03*
X78118000Y-137276000D03*
D19*
X123748000Y-140776000D03*
X123748000Y-138076000D03*
D35*
X113723000Y-125201000D03*
X116423000Y-125201000D03*
D19*
X113498000Y-129901000D03*
X113498000Y-127201000D03*
D35*
X116423000Y-123051000D03*
X113723000Y-123051000D03*
X113548000Y-133351000D03*
X116248000Y-133351000D03*
D19*
X136150000Y-139002000D03*
X136150000Y-136302000D03*
D35*
X122768000Y-134096000D03*
X120068000Y-134096000D03*
X127020000Y-132480000D03*
X124320000Y-132480000D03*
X124300000Y-130550000D03*
X127000000Y-130550000D03*
X113523000Y-135101000D03*
X116223000Y-135101000D03*
D36*
X64236000Y-140192000D03*
X60236000Y-140192000D03*
X56508000Y-140206000D03*
X52508000Y-140206000D03*
X136548000Y-142026000D03*
X140548000Y-142026000D03*
X144048000Y-142026000D03*
X148048000Y-142026000D03*
D37*
X70718000Y-146851000D03*
X130088000Y-147071000D03*
D33*
X71578000Y-140636000D03*
X71578000Y-136636000D03*
D38*
X115748000Y-127896000D03*
X115748000Y-129166000D03*
X115748000Y-130436000D03*
X115748000Y-131706000D03*
X121148000Y-131706000D03*
X121148000Y-130436000D03*
X121148000Y-129166000D03*
X121148000Y-127896000D03*
D18*
X110898000Y-123026000D03*
X110898000Y-125526000D03*
D14*
X88648000Y-125076000D03*
X91148000Y-125076000D03*
X52898000Y-137376000D03*
X55398000Y-137376000D03*
D18*
X138268000Y-136246000D03*
X138268000Y-138746000D03*
D12*
X125048000Y-134266000D03*
X127548000Y-134266000D03*
D39*
X141948000Y-114276000D03*
X143848000Y-114276000D03*
X142898000Y-112276000D03*
X105948000Y-114276000D03*
X107848000Y-114276000D03*
X106898000Y-112276000D03*
X70248000Y-114176000D03*
X72148000Y-114176000D03*
X71198000Y-112176000D03*
X137448000Y-114376000D03*
X139348000Y-114376000D03*
X138398000Y-112376000D03*
X101548000Y-114276000D03*
X103448000Y-114276000D03*
X102498000Y-112276000D03*
X65748000Y-114276000D03*
X67648000Y-114276000D03*
X66698000Y-112276000D03*
X132848000Y-114376000D03*
X134748000Y-114376000D03*
X133798000Y-112376000D03*
X97148000Y-114176000D03*
X99048000Y-114176000D03*
X98098000Y-112176000D03*
X61148000Y-114276000D03*
X63048000Y-114276000D03*
X62098000Y-112276000D03*
X128348000Y-114376000D03*
X130248000Y-114376000D03*
X129298000Y-112376000D03*
X92698000Y-114276000D03*
X94598000Y-114276000D03*
X93648000Y-112276000D03*
X56698000Y-114296000D03*
X58598000Y-114296000D03*
X57648000Y-112296000D03*
X88198000Y-114276000D03*
X90098000Y-114276000D03*
X89148000Y-112276000D03*
X119348000Y-114376000D03*
X121248000Y-114376000D03*
X120298000Y-112376000D03*
X83548000Y-114276000D03*
X85448000Y-114276000D03*
X84498000Y-112276000D03*
X114948000Y-114276000D03*
X116848000Y-114276000D03*
X115898000Y-112276000D03*
X79148000Y-114376000D03*
X81048000Y-114376000D03*
X80098000Y-112376000D03*
X110448000Y-114276000D03*
X112348000Y-114276000D03*
X111398000Y-112276000D03*
X74748000Y-114376000D03*
X76648000Y-114376000D03*
X75698000Y-112376000D03*
D40*
X59098000Y-66326000D03*
X59098000Y-68226000D03*
X61098000Y-67276000D03*
D19*
X142170000Y-104160000D03*
X142170000Y-106860000D03*
X105930000Y-104580000D03*
X105930000Y-107280000D03*
X72140000Y-104580000D03*
X72140000Y-107280000D03*
X137570000Y-104170000D03*
X137570000Y-106870000D03*
X101500000Y-104540000D03*
X101500000Y-107240000D03*
X67775000Y-104650000D03*
X67775000Y-107350000D03*
X132890000Y-104190000D03*
X132890000Y-106890000D03*
X97300000Y-104650000D03*
X97300000Y-107350000D03*
X63600000Y-104700000D03*
X63600000Y-107400000D03*
X128420000Y-104420000D03*
X128420000Y-107120000D03*
X93218000Y-104568000D03*
X93218000Y-107268000D03*
X58825000Y-104625000D03*
X58825000Y-107325000D03*
X123900000Y-104340000D03*
X123900000Y-107040000D03*
X89350000Y-104550000D03*
X89350000Y-107250000D03*
X119720000Y-104290000D03*
X119720000Y-106990000D03*
X85100000Y-104525000D03*
X85100000Y-107225000D03*
X114889280Y-104319080D03*
X114889280Y-107019080D03*
X80875000Y-104400000D03*
X80875000Y-107100000D03*
X110870000Y-104450000D03*
X110870000Y-107150000D03*
X76810000Y-104490000D03*
X76810000Y-107190000D03*
D39*
X123748000Y-114376000D03*
X125648000Y-114376000D03*
X124698000Y-112376000D03*
D40*
X58998000Y-56826000D03*
X58998000Y-58726000D03*
X60998000Y-57776000D03*
X58898000Y-80416000D03*
X58898000Y-82316000D03*
X60898000Y-81366000D03*
X58998000Y-61626000D03*
X58998000Y-63526000D03*
X60998000Y-62576000D03*
X58908000Y-85136000D03*
X58908000Y-87036000D03*
X60908000Y-86086000D03*
X58908000Y-89606000D03*
X58908000Y-91506000D03*
X60908000Y-90556000D03*
X59048000Y-70976000D03*
X59048000Y-72876000D03*
X61048000Y-71926000D03*
X58928000Y-94456000D03*
X58928000Y-96356000D03*
X60928000Y-95406000D03*
X58898000Y-75626000D03*
X58898000Y-77526000D03*
X60898000Y-76576000D03*
X58898000Y-99326000D03*
X58898000Y-101226000D03*
X60898000Y-100276000D03*
X141898000Y-101126000D03*
X141898000Y-99226000D03*
X139898000Y-100176000D03*
X141898000Y-77626000D03*
X141898000Y-75726000D03*
X139898000Y-76676000D03*
X141898000Y-96426000D03*
X141898000Y-94526000D03*
X139898000Y-95476000D03*
X141898000Y-73026000D03*
X141898000Y-71126000D03*
X139898000Y-72076000D03*
X141898000Y-91726000D03*
X141898000Y-89826000D03*
X139898000Y-90776000D03*
X141898000Y-68226000D03*
X141898000Y-66326000D03*
X139898000Y-67276000D03*
X141898000Y-87026000D03*
X141898000Y-85126000D03*
X139898000Y-86076000D03*
X141898000Y-63626000D03*
X141898000Y-61726000D03*
X139898000Y-62676000D03*
X141898000Y-82326000D03*
X141898000Y-80426000D03*
X139898000Y-81376000D03*
X141798000Y-59026000D03*
X141798000Y-57126000D03*
X139798000Y-58076000D03*
D11*
X135636000Y-59393000D03*
X135636000Y-57193000D03*
X131826000Y-59393000D03*
X131826000Y-57193000D03*
X128016000Y-59393000D03*
X128016000Y-57193000D03*
X124206000Y-59393000D03*
X124206000Y-57193000D03*
X116586000Y-59393000D03*
X116586000Y-57193000D03*
X112776000Y-59393000D03*
X112776000Y-57193000D03*
X108966000Y-59393000D03*
X108966000Y-57193000D03*
X105156000Y-59393000D03*
X105156000Y-57193000D03*
X101346000Y-59393000D03*
X101346000Y-57193000D03*
X97536000Y-59393000D03*
X97536000Y-57193000D03*
X93726000Y-59393000D03*
X93726000Y-57193000D03*
X89916000Y-59393000D03*
X89916000Y-57193000D03*
X86106000Y-59393000D03*
X86106000Y-57193000D03*
X78486000Y-59393000D03*
X78486000Y-57193000D03*
X74676000Y-59393000D03*
X74676000Y-57193000D03*
X70866000Y-59393000D03*
X70866000Y-57193000D03*
X67056000Y-59393000D03*
X67056000Y-57193000D03*
X63246000Y-59393000D03*
X63246000Y-57193000D03*
X137541000Y-60536000D03*
X137541000Y-58336000D03*
X133731000Y-60536000D03*
X133731000Y-58336000D03*
X129921000Y-60536000D03*
X129921000Y-58336000D03*
X126111000Y-60536000D03*
X126111000Y-58336000D03*
X122301000Y-60536000D03*
X122301000Y-58336000D03*
X118491000Y-60536000D03*
X118491000Y-58336000D03*
X114681000Y-60536000D03*
X114681000Y-58336000D03*
X110871000Y-60536000D03*
X110871000Y-58336000D03*
X107061000Y-60536000D03*
X107061000Y-58336000D03*
X103251000Y-60536000D03*
X103251000Y-58336000D03*
X99441000Y-60536000D03*
X99441000Y-58336000D03*
X95631000Y-60536000D03*
X95631000Y-58336000D03*
X91821000Y-60536000D03*
X91821000Y-58336000D03*
X88011000Y-60536000D03*
X88011000Y-58336000D03*
X84201000Y-60536000D03*
X84201000Y-58336000D03*
X80391000Y-60536000D03*
X80391000Y-58336000D03*
X76581000Y-60536000D03*
X76581000Y-58336000D03*
X72771000Y-60536000D03*
X72771000Y-58336000D03*
X68961000Y-60536000D03*
X68961000Y-58336000D03*
X65151000Y-60536000D03*
X65151000Y-58336000D03*
X135636000Y-63965000D03*
X135636000Y-61765000D03*
X131826000Y-63965000D03*
X131826000Y-61765000D03*
X128016000Y-63965000D03*
X128016000Y-61765000D03*
X124206000Y-63965000D03*
X124206000Y-61765000D03*
X120396000Y-63965000D03*
X120396000Y-61765000D03*
X116586000Y-63965000D03*
X116586000Y-61765000D03*
X112776000Y-63965000D03*
X112776000Y-61765000D03*
X108966000Y-63965000D03*
X108966000Y-61765000D03*
X105156000Y-63965000D03*
X105156000Y-61765000D03*
X101346000Y-63965000D03*
X101346000Y-61765000D03*
X97536000Y-63965000D03*
X97536000Y-61765000D03*
X93726000Y-63965000D03*
X93726000Y-61765000D03*
X89916000Y-63965000D03*
X89916000Y-61765000D03*
X86106000Y-63965000D03*
X86106000Y-61765000D03*
X82296000Y-63965000D03*
X82296000Y-61765000D03*
X78486000Y-63965000D03*
X78486000Y-61765000D03*
X74676000Y-63965000D03*
X74676000Y-61765000D03*
X70866000Y-63965000D03*
X70866000Y-61765000D03*
X67056000Y-63965000D03*
X67056000Y-61765000D03*
X63246000Y-63965000D03*
X63246000Y-61765000D03*
X137541000Y-65108000D03*
X137541000Y-62908000D03*
X133731000Y-65108000D03*
X133731000Y-62908000D03*
X129921000Y-65108000D03*
X129921000Y-62908000D03*
X126111000Y-65108000D03*
X126111000Y-62908000D03*
X122301000Y-65108000D03*
X122301000Y-62908000D03*
X118491000Y-65108000D03*
X118491000Y-62908000D03*
X114681000Y-65108000D03*
X114681000Y-62908000D03*
X110871000Y-65108000D03*
X110871000Y-62908000D03*
X107061000Y-65108000D03*
X107061000Y-62908000D03*
X103251000Y-65108000D03*
X103251000Y-62908000D03*
X99441000Y-65108000D03*
X99441000Y-62908000D03*
X95631000Y-65108000D03*
X95631000Y-62908000D03*
X91821000Y-65108000D03*
X91821000Y-62908000D03*
X88011000Y-65108000D03*
X88011000Y-62908000D03*
X84201000Y-65108000D03*
X84201000Y-62908000D03*
X80391000Y-65108000D03*
X80391000Y-62908000D03*
X76581000Y-65108000D03*
X76581000Y-62908000D03*
X72771000Y-65108000D03*
X72771000Y-62908000D03*
X68961000Y-65108000D03*
X68961000Y-62908000D03*
X65151000Y-65108000D03*
X65151000Y-62908000D03*
X135636000Y-68537000D03*
X135636000Y-66337000D03*
X131826000Y-68537000D03*
X131826000Y-66337000D03*
X128016000Y-68537000D03*
X128016000Y-66337000D03*
X124206000Y-68537000D03*
X124206000Y-66337000D03*
X120396000Y-68537000D03*
X120396000Y-66337000D03*
X116586000Y-68537000D03*
X116586000Y-66337000D03*
X112776000Y-68537000D03*
X112776000Y-66337000D03*
X108966000Y-68537000D03*
X108966000Y-66337000D03*
X105156000Y-68537000D03*
X105156000Y-66337000D03*
X101346000Y-68537000D03*
X101346000Y-66337000D03*
X97536000Y-68537000D03*
X97536000Y-66337000D03*
X93726000Y-68537000D03*
X93726000Y-66337000D03*
X89916000Y-68537000D03*
X89916000Y-66337000D03*
X86106000Y-68537000D03*
X86106000Y-66337000D03*
X82296000Y-68537000D03*
X82296000Y-66337000D03*
X78486000Y-68537000D03*
X78486000Y-66337000D03*
X74676000Y-68537000D03*
X74676000Y-66337000D03*
X70866000Y-68537000D03*
X70866000Y-66337000D03*
X67056000Y-68537000D03*
X67056000Y-66337000D03*
X63246000Y-68537000D03*
X63246000Y-66337000D03*
X137541000Y-69680000D03*
X137541000Y-67480000D03*
X133731000Y-69680000D03*
X133731000Y-67480000D03*
X129921000Y-69680000D03*
X129921000Y-67480000D03*
X126111000Y-69680000D03*
X126111000Y-67480000D03*
X122301000Y-69680000D03*
X122301000Y-67480000D03*
X118491000Y-69680000D03*
X118491000Y-67480000D03*
X114681000Y-69680000D03*
X114681000Y-67480000D03*
X110871000Y-69680000D03*
X110871000Y-67480000D03*
X107061000Y-69680000D03*
X107061000Y-67480000D03*
X103251000Y-69680000D03*
X103251000Y-67480000D03*
X99441000Y-69680000D03*
X99441000Y-67480000D03*
X95631000Y-69680000D03*
X95631000Y-67480000D03*
X91821000Y-69680000D03*
X91821000Y-67480000D03*
X88011000Y-69680000D03*
X88011000Y-67480000D03*
X84201000Y-69680000D03*
X84201000Y-67480000D03*
X80391000Y-69680000D03*
X80391000Y-67480000D03*
X76581000Y-69680000D03*
X76581000Y-67480000D03*
X72771000Y-69680000D03*
X72771000Y-67480000D03*
X68961000Y-69680000D03*
X68961000Y-67480000D03*
X65151000Y-69680000D03*
X65151000Y-67480000D03*
X135636000Y-73109000D03*
X135636000Y-70909000D03*
X131826000Y-73109000D03*
X131826000Y-70909000D03*
X128016000Y-73109000D03*
X128016000Y-70909000D03*
X124206000Y-73109000D03*
X124206000Y-70909000D03*
X120396000Y-73109000D03*
X120396000Y-70909000D03*
X116586000Y-73109000D03*
X116586000Y-70909000D03*
X112776000Y-73109000D03*
X112776000Y-70909000D03*
X108966000Y-73109000D03*
X108966000Y-70909000D03*
X105156000Y-73109000D03*
X105156000Y-70909000D03*
X101346000Y-73109000D03*
X101346000Y-70909000D03*
X97536000Y-73109000D03*
X97536000Y-70909000D03*
X93726000Y-73109000D03*
X93726000Y-70909000D03*
X89916000Y-73109000D03*
X89916000Y-70909000D03*
X86106000Y-73109000D03*
X86106000Y-70909000D03*
X82296000Y-73109000D03*
X82296000Y-70909000D03*
X78486000Y-73109000D03*
X78486000Y-70909000D03*
X74676000Y-73109000D03*
X74676000Y-70909000D03*
X70866000Y-73109000D03*
X70866000Y-70909000D03*
X67056000Y-73109000D03*
X67056000Y-70909000D03*
X63246000Y-73109000D03*
X63246000Y-70909000D03*
X137541000Y-74252000D03*
X137541000Y-72052000D03*
X133731000Y-74252000D03*
X133731000Y-72052000D03*
X129921000Y-74252000D03*
X129921000Y-72052000D03*
X126111000Y-74252000D03*
X126111000Y-72052000D03*
X122301000Y-74252000D03*
X122301000Y-72052000D03*
X118491000Y-74252000D03*
X118491000Y-72052000D03*
X114681000Y-74252000D03*
X114681000Y-72052000D03*
X110871000Y-74252000D03*
X110871000Y-72052000D03*
X107061000Y-74252000D03*
X107061000Y-72052000D03*
X103251000Y-74252000D03*
X103251000Y-72052000D03*
X99441000Y-74252000D03*
X99441000Y-72052000D03*
X95631000Y-74252000D03*
X95631000Y-72052000D03*
X91821000Y-74252000D03*
X91821000Y-72052000D03*
X88011000Y-74252000D03*
X88011000Y-72052000D03*
X84201000Y-74252000D03*
X84201000Y-72052000D03*
X80391000Y-74252000D03*
X80391000Y-72052000D03*
X76581000Y-74252000D03*
X76581000Y-72052000D03*
X72771000Y-74252000D03*
X72771000Y-72052000D03*
X68961000Y-74252000D03*
X68961000Y-72052000D03*
X65151000Y-74252000D03*
X65151000Y-72052000D03*
X135636000Y-77681000D03*
X135636000Y-75481000D03*
X131826000Y-77681000D03*
X131826000Y-75481000D03*
X128016000Y-77681000D03*
X128016000Y-75481000D03*
X124206000Y-77681000D03*
X124206000Y-75481000D03*
X120396000Y-77681000D03*
X120396000Y-75481000D03*
X116586000Y-77681000D03*
X116586000Y-75481000D03*
X112776000Y-77681000D03*
X112776000Y-75481000D03*
X108966000Y-77681000D03*
X108966000Y-75481000D03*
X105156000Y-77681000D03*
X105156000Y-75481000D03*
X101346000Y-77681000D03*
X101346000Y-75481000D03*
X97536000Y-77681000D03*
X97536000Y-75481000D03*
X93726000Y-77681000D03*
X93726000Y-75481000D03*
X89916000Y-77681000D03*
X89916000Y-75481000D03*
X86106000Y-77681000D03*
X86106000Y-75481000D03*
X82296000Y-77681000D03*
X82296000Y-75481000D03*
X78486000Y-77681000D03*
X78486000Y-75481000D03*
X74676000Y-77681000D03*
X74676000Y-75481000D03*
X70866000Y-77681000D03*
X70866000Y-75481000D03*
X67056000Y-77681000D03*
X67056000Y-75481000D03*
X63246000Y-77681000D03*
X63246000Y-75481000D03*
X137541000Y-78824000D03*
X137541000Y-76624000D03*
X133731000Y-78824000D03*
X133731000Y-76624000D03*
X129921000Y-78824000D03*
X129921000Y-76624000D03*
X126111000Y-78824000D03*
X126111000Y-76624000D03*
X122301000Y-78824000D03*
X122301000Y-76624000D03*
X118491000Y-78824000D03*
X118491000Y-76624000D03*
X114681000Y-78824000D03*
X114681000Y-76624000D03*
X110871000Y-78824000D03*
X110871000Y-76624000D03*
X107061000Y-78824000D03*
X107061000Y-76624000D03*
X103251000Y-78824000D03*
X103251000Y-76624000D03*
X99441000Y-78824000D03*
X99441000Y-76624000D03*
X95631000Y-78824000D03*
X95631000Y-76624000D03*
X91821000Y-78824000D03*
X91821000Y-76624000D03*
X88011000Y-78824000D03*
X88011000Y-76624000D03*
X84201000Y-78824000D03*
X84201000Y-76624000D03*
X80391000Y-78824000D03*
X80391000Y-76624000D03*
X76581000Y-78824000D03*
X76581000Y-76624000D03*
X72771000Y-78824000D03*
X72771000Y-76624000D03*
X68961000Y-78824000D03*
X68961000Y-76624000D03*
X65151000Y-78824000D03*
X65151000Y-76624000D03*
X135636000Y-82253000D03*
X135636000Y-80053000D03*
X131826000Y-82253000D03*
X131826000Y-80053000D03*
X128016000Y-82253000D03*
X128016000Y-80053000D03*
X124206000Y-82253000D03*
X124206000Y-80053000D03*
X120396000Y-82253000D03*
X120396000Y-80053000D03*
X116586000Y-82253000D03*
X116586000Y-80053000D03*
X112776000Y-82253000D03*
X112776000Y-80053000D03*
X108966000Y-82253000D03*
X108966000Y-80053000D03*
X105156000Y-82253000D03*
X105156000Y-80053000D03*
X101346000Y-82253000D03*
X101346000Y-80053000D03*
X97536000Y-82253000D03*
X97536000Y-80053000D03*
X93726000Y-82253000D03*
X93726000Y-80053000D03*
X89916000Y-82253000D03*
X89916000Y-80053000D03*
X86106000Y-82253000D03*
X86106000Y-80053000D03*
X82296000Y-82253000D03*
X82296000Y-80053000D03*
X78486000Y-82253000D03*
X78486000Y-80053000D03*
X74676000Y-82253000D03*
X74676000Y-80053000D03*
X70866000Y-82253000D03*
X70866000Y-80053000D03*
X67056000Y-82253000D03*
X67056000Y-80053000D03*
X63246000Y-82253000D03*
X63246000Y-80053000D03*
X137541000Y-83396000D03*
X137541000Y-81196000D03*
X133731000Y-83396000D03*
X133731000Y-81196000D03*
X129921000Y-83396000D03*
X129921000Y-81196000D03*
X126111000Y-83396000D03*
X126111000Y-81196000D03*
X122301000Y-83396000D03*
X122301000Y-81196000D03*
X118491000Y-83396000D03*
X118491000Y-81196000D03*
X114681000Y-83396000D03*
X114681000Y-81196000D03*
X110871000Y-83396000D03*
X110871000Y-81196000D03*
X107061000Y-83396000D03*
X107061000Y-81196000D03*
X103251000Y-83396000D03*
X103251000Y-81196000D03*
X99441000Y-83396000D03*
X99441000Y-81196000D03*
X95631000Y-83396000D03*
X95631000Y-81196000D03*
X91821000Y-83396000D03*
X91821000Y-81196000D03*
X88011000Y-83396000D03*
X88011000Y-81196000D03*
X84201000Y-83396000D03*
X84201000Y-81196000D03*
X80391000Y-83396000D03*
X80391000Y-81196000D03*
X76581000Y-83396000D03*
X76581000Y-81196000D03*
X72771000Y-83396000D03*
X72771000Y-81196000D03*
X68961000Y-83396000D03*
X68961000Y-81196000D03*
X65151000Y-83396000D03*
X65151000Y-81196000D03*
X135636000Y-86825000D03*
X135636000Y-84625000D03*
X131826000Y-86825000D03*
X131826000Y-84625000D03*
X128016000Y-86825000D03*
X128016000Y-84625000D03*
X124206000Y-86825000D03*
X124206000Y-84625000D03*
X120396000Y-86825000D03*
X120396000Y-84625000D03*
X116586000Y-86825000D03*
X116586000Y-84625000D03*
X112776000Y-86825000D03*
X112776000Y-84625000D03*
X108966000Y-86825000D03*
X108966000Y-84625000D03*
X105156000Y-86825000D03*
X105156000Y-84625000D03*
X101346000Y-86825000D03*
X101346000Y-84625000D03*
X97536000Y-86825000D03*
X97536000Y-84625000D03*
X93726000Y-86825000D03*
X93726000Y-84625000D03*
X89916000Y-86825000D03*
X89916000Y-84625000D03*
X86106000Y-86825000D03*
X86106000Y-84625000D03*
X82296000Y-86825000D03*
X82296000Y-84625000D03*
X78486000Y-86825000D03*
X78486000Y-84625000D03*
X74676000Y-86825000D03*
X74676000Y-84625000D03*
X70866000Y-86825000D03*
X70866000Y-84625000D03*
X67056000Y-86825000D03*
X67056000Y-84625000D03*
X63246000Y-86825000D03*
X63246000Y-84625000D03*
X137541000Y-87968000D03*
X137541000Y-85768000D03*
X133731000Y-87968000D03*
X133731000Y-85768000D03*
X129921000Y-87968000D03*
X129921000Y-85768000D03*
X126111000Y-87968000D03*
X126111000Y-85768000D03*
X122301000Y-87968000D03*
X122301000Y-85768000D03*
X118491000Y-87968000D03*
X118491000Y-85768000D03*
X114681000Y-87968000D03*
X114681000Y-85768000D03*
X110871000Y-87968000D03*
X110871000Y-85768000D03*
X107061000Y-87968000D03*
X107061000Y-85768000D03*
X103251000Y-87968000D03*
X103251000Y-85768000D03*
X99441000Y-87968000D03*
X99441000Y-85768000D03*
X95631000Y-87968000D03*
X95631000Y-85768000D03*
X91821000Y-87968000D03*
X91821000Y-85768000D03*
X88011000Y-87968000D03*
X88011000Y-85768000D03*
X84201000Y-87968000D03*
X84201000Y-85768000D03*
X80391000Y-87968000D03*
X80391000Y-85768000D03*
X76581000Y-87968000D03*
X76581000Y-85768000D03*
X72771000Y-87968000D03*
X72771000Y-85768000D03*
X68961000Y-87968000D03*
X68961000Y-85768000D03*
X65151000Y-87968000D03*
X65151000Y-85768000D03*
X135636000Y-91397000D03*
X135636000Y-89197000D03*
X131826000Y-91397000D03*
X131826000Y-89197000D03*
X124206000Y-91397000D03*
X124206000Y-89197000D03*
X120396000Y-91397000D03*
X120396000Y-89197000D03*
X116586000Y-91397000D03*
X116586000Y-89197000D03*
X112776000Y-91397000D03*
X112776000Y-89197000D03*
X108966000Y-91397000D03*
X108966000Y-89197000D03*
X105156000Y-91397000D03*
X105156000Y-89197000D03*
X101346000Y-91397000D03*
X101346000Y-89197000D03*
X97536000Y-91397000D03*
X97536000Y-89197000D03*
X93726000Y-91397000D03*
X93726000Y-89197000D03*
X89916000Y-91397000D03*
X89916000Y-89197000D03*
X86106000Y-91397000D03*
X86106000Y-89197000D03*
X82296000Y-91397000D03*
X82296000Y-89197000D03*
X78486000Y-91397000D03*
X78486000Y-89197000D03*
X74676000Y-91397000D03*
X74676000Y-89197000D03*
X70866000Y-91397000D03*
X70866000Y-89197000D03*
X67056000Y-91397000D03*
X67056000Y-89197000D03*
X63246000Y-91397000D03*
X63246000Y-89197000D03*
X137541000Y-92540000D03*
X137541000Y-90340000D03*
X133731000Y-92540000D03*
X133731000Y-90340000D03*
X129921000Y-92540000D03*
X129921000Y-90340000D03*
X126111000Y-92540000D03*
X126111000Y-90340000D03*
X122301000Y-92540000D03*
X122301000Y-90340000D03*
X118491000Y-92540000D03*
X118491000Y-90340000D03*
X114681000Y-92540000D03*
X114681000Y-90340000D03*
X110871000Y-92540000D03*
X110871000Y-90340000D03*
X107061000Y-92540000D03*
X107061000Y-90340000D03*
X103251000Y-92540000D03*
X103251000Y-90340000D03*
X99441000Y-92540000D03*
X99441000Y-90340000D03*
X95631000Y-92540000D03*
X95631000Y-90340000D03*
X91821000Y-92540000D03*
X91821000Y-90340000D03*
X88011000Y-92540000D03*
X88011000Y-90340000D03*
X84201000Y-92540000D03*
X84201000Y-90340000D03*
X80391000Y-92540000D03*
X80391000Y-90340000D03*
X76581000Y-92540000D03*
X76581000Y-90340000D03*
X72771000Y-92540000D03*
X72771000Y-90340000D03*
X68961000Y-92540000D03*
X68961000Y-90340000D03*
X65151000Y-92540000D03*
X65151000Y-90340000D03*
X135636000Y-95969000D03*
X135636000Y-93769000D03*
X131826000Y-95969000D03*
X131826000Y-93769000D03*
X128016000Y-95969000D03*
X128016000Y-93769000D03*
X124206000Y-95969000D03*
X124206000Y-93769000D03*
X120396000Y-95969000D03*
X120396000Y-93769000D03*
X116586000Y-95969000D03*
X116586000Y-93769000D03*
X112776000Y-95969000D03*
X112776000Y-93769000D03*
X108966000Y-95969000D03*
X108966000Y-93769000D03*
X105156000Y-95969000D03*
X105156000Y-93769000D03*
X101346000Y-95969000D03*
X101346000Y-93769000D03*
X97536000Y-95969000D03*
X97536000Y-93769000D03*
X93726000Y-95969000D03*
X93726000Y-93769000D03*
X89916000Y-95969000D03*
X89916000Y-93769000D03*
X86106000Y-95969000D03*
X86106000Y-93769000D03*
X82296000Y-95969000D03*
X82296000Y-93769000D03*
X78486000Y-95969000D03*
X78486000Y-93769000D03*
X74676000Y-95969000D03*
X74676000Y-93769000D03*
X70866000Y-95969000D03*
X70866000Y-93769000D03*
X67056000Y-95969000D03*
X67056000Y-93769000D03*
X63246000Y-95969000D03*
X63246000Y-93769000D03*
X137541000Y-97112000D03*
X137541000Y-94912000D03*
X133731000Y-97112000D03*
X133731000Y-94912000D03*
X129921000Y-97112000D03*
X129921000Y-94912000D03*
X126111000Y-97112000D03*
X126111000Y-94912000D03*
X122301000Y-97112000D03*
X122301000Y-94912000D03*
X118491000Y-97112000D03*
X118491000Y-94912000D03*
X114681000Y-97112000D03*
X114681000Y-94912000D03*
X110871000Y-97112000D03*
X110871000Y-94912000D03*
X107061000Y-97112000D03*
X107061000Y-94912000D03*
X103251000Y-97112000D03*
X103251000Y-94912000D03*
X99441000Y-97112000D03*
X99441000Y-94912000D03*
X95631000Y-97112000D03*
X95631000Y-94912000D03*
X91821000Y-97112000D03*
X91821000Y-94912000D03*
X88011000Y-97112000D03*
X88011000Y-94912000D03*
X84201000Y-97112000D03*
X84201000Y-94912000D03*
X80391000Y-97112000D03*
X80391000Y-94912000D03*
X76581000Y-97112000D03*
X76581000Y-94912000D03*
X72771000Y-97112000D03*
X72771000Y-94912000D03*
X68961000Y-97112000D03*
X68961000Y-94912000D03*
X65151000Y-97112000D03*
X65151000Y-94912000D03*
X135636000Y-100541000D03*
X135636000Y-98341000D03*
X131826000Y-100541000D03*
X131826000Y-98341000D03*
X128016000Y-100541000D03*
X128016000Y-98341000D03*
X124206000Y-100541000D03*
X124206000Y-98341000D03*
X120396000Y-100541000D03*
X120396000Y-98341000D03*
X116586000Y-100541000D03*
X116586000Y-98341000D03*
X112776000Y-100541000D03*
X112776000Y-98341000D03*
X108966000Y-100541000D03*
X108966000Y-98341000D03*
X105156000Y-100541000D03*
X105156000Y-98341000D03*
X101346000Y-100541000D03*
X101346000Y-98341000D03*
X97536000Y-100541000D03*
X97536000Y-98341000D03*
X93726000Y-100541000D03*
X93726000Y-98341000D03*
X89916000Y-100541000D03*
X89916000Y-98341000D03*
X86106000Y-100541000D03*
X86106000Y-98341000D03*
X82296000Y-100541000D03*
X82296000Y-98341000D03*
X78486000Y-100541000D03*
X78486000Y-98341000D03*
X74676000Y-100541000D03*
X74676000Y-98341000D03*
X70866000Y-100541000D03*
X70866000Y-98341000D03*
X67056000Y-100541000D03*
X67056000Y-98341000D03*
X63246000Y-100541000D03*
X63246000Y-98341000D03*
X137541000Y-101684000D03*
X137541000Y-99484000D03*
X133731000Y-101684000D03*
X133731000Y-99484000D03*
X129921000Y-101684000D03*
X129921000Y-99484000D03*
X126111000Y-101684000D03*
X126111000Y-99484000D03*
X122301000Y-101684000D03*
X122301000Y-99484000D03*
X118491000Y-101684000D03*
X118491000Y-99484000D03*
X114681000Y-101684000D03*
X114681000Y-99484000D03*
X110871000Y-101684000D03*
X110871000Y-99484000D03*
X107061000Y-101684000D03*
X107061000Y-99484000D03*
X103251000Y-101684000D03*
X103251000Y-99484000D03*
X99441000Y-101684000D03*
X99441000Y-99484000D03*
X95631000Y-101684000D03*
X95631000Y-99484000D03*
X91821000Y-101684000D03*
X91821000Y-99484000D03*
X88011000Y-101684000D03*
X88011000Y-99484000D03*
X84201000Y-101684000D03*
X84201000Y-99484000D03*
X80391000Y-101684000D03*
X80391000Y-99484000D03*
X76581000Y-101684000D03*
X76581000Y-99484000D03*
X72771000Y-101684000D03*
X72771000Y-99484000D03*
X68961000Y-101684000D03*
X68961000Y-99484000D03*
X65151000Y-101684000D03*
X65151000Y-99484000D03*
D41*
X56858400Y-123494800D03*
X64858400Y-123494800D03*
D40*
X106230000Y-108980000D03*
X106230000Y-110880000D03*
X108230000Y-109930000D03*
X72420000Y-109060000D03*
X72420000Y-110960000D03*
X74420000Y-110010000D03*
X142110000Y-108980000D03*
X142110000Y-110880000D03*
X144110000Y-109930000D03*
X101660000Y-108980000D03*
X101660000Y-110880000D03*
X103660000Y-109930000D03*
X68075000Y-108925000D03*
X68075000Y-110825000D03*
X70075000Y-109875000D03*
X137680000Y-108740000D03*
X137680000Y-110640000D03*
X139680000Y-109690000D03*
X97540000Y-108970000D03*
X97540000Y-110870000D03*
X99540000Y-109920000D03*
X63800000Y-109200000D03*
X63800000Y-111100000D03*
X65800000Y-110150000D03*
X133040000Y-108740000D03*
X133040000Y-110640000D03*
X135040000Y-109690000D03*
X93410000Y-108900000D03*
X93410000Y-110800000D03*
X95410000Y-109850000D03*
X59075000Y-109075000D03*
X59075000Y-110975000D03*
X61075000Y-110025000D03*
X128660000Y-108940000D03*
X128660000Y-110840000D03*
X130660000Y-109890000D03*
X89600000Y-109050000D03*
X89600000Y-110950000D03*
X91600000Y-110000000D03*
X123930000Y-108820000D03*
X123930000Y-110720000D03*
X125930000Y-109770000D03*
X85375000Y-108925000D03*
X85375000Y-110825000D03*
X87375000Y-109875000D03*
X120090000Y-108940000D03*
X120090000Y-110840000D03*
X122090000Y-109890000D03*
X81150000Y-109025000D03*
X81150000Y-110925000D03*
X83150000Y-109975000D03*
X114895120Y-108798320D03*
X114895120Y-110698320D03*
X116895120Y-109748320D03*
X77040000Y-109080000D03*
X77040000Y-110980000D03*
X79040000Y-110030000D03*
X111190000Y-108940000D03*
X111190000Y-110840000D03*
X113190000Y-109890000D03*
D19*
X108220000Y-107220000D03*
X108220000Y-104520000D03*
X74676000Y-107268000D03*
X74676000Y-104568000D03*
X144370000Y-106900000D03*
X144370000Y-104200000D03*
X103840000Y-107240000D03*
X103840000Y-104540000D03*
X70250000Y-107275000D03*
X70250000Y-104575000D03*
X139820000Y-106870000D03*
X139820000Y-104170000D03*
X99660000Y-107410000D03*
X99660000Y-104710000D03*
X66000000Y-107350000D03*
X66000000Y-104650000D03*
X135180000Y-106930000D03*
X135180000Y-104230000D03*
X95650000Y-107360000D03*
X95650000Y-104660000D03*
X61725000Y-107325000D03*
X61725000Y-104625000D03*
X130780000Y-107050000D03*
X130780000Y-104350000D03*
X126340000Y-107090000D03*
X126340000Y-104390000D03*
X87400000Y-107350000D03*
X87400000Y-104650000D03*
X122030000Y-107040000D03*
X122030000Y-104340000D03*
X83125000Y-107250000D03*
X83125000Y-104550000D03*
X117073680Y-107130840D03*
X117073680Y-104430840D03*
X79020000Y-107190000D03*
X79020000Y-104490000D03*
X113140000Y-107100000D03*
X113140000Y-104400000D03*
X91500000Y-107250000D03*
X91500000Y-104550000D03*
X89570000Y-130490000D03*
X89570000Y-133190000D03*
D15*
X87440000Y-130210000D03*
D16*
X87440000Y-132750000D03*
D42*
X130302000Y-121428000D03*
X130302000Y-123428000D03*
M02*
